<svg width="149" height="25" viewBox="0 0 149 25" fill="none" xmlns="http://www.w3.org/2000/svg">
<path d="M6.19895 24.8082H0.134277V18.5585H6.19895V24.8082Z" fill="#399C48"/>
<path d="M18.5915 24.6702H12.5269V18.4201H18.5915V24.6702Z" fill="#8B68AA"/>
<path d="M6.19895 18.9124H0.134277V12.6626H6.19895V18.9124Z" fill="#399C48"/>
<path d="M12.8977 18.4821H6.83301V12.2323H12.8977V18.4821Z" fill="#8B68AA"/>
<path d="M18.5915 18.7742H12.5269V12.5244H18.5915V18.7742Z" fill="#8B68AA"/>
<path d="M25.2912 18.4821H19.2266V12.2323H25.2912V18.4821Z" fill="#8B68AA"/>
<path d="M6.19895 12.6666H0.134277V6.41687H6.19895V12.6666Z" fill="#399C48"/>
<path d="M18.5915 12.5286H12.5269V6.27881H18.5915V12.5286Z" fill="#8B68AA"/>
<path d="M6.21858 6.36853V0.118768H0L6.26195 6.36853" fill="#399C48"/>
<path d="M12.4266 6.35095H6.20801V0.101184H12.4266V6.35095Z" fill="#399C48"/>
<path d="M12.3726 0.0834894V6.33325H18.5911L12.3726 0.0834894Z" fill="#399C48"/>
<path d="M40.2453 15.1453L38.4244 9.79377L36.6037 15.1453H40.2453ZM41.3209 18.3223H35.5275L34.5969 21.1157H30.2725L36.2106 5.03909H40.6384L46.5762 21.1157H42.2524L41.3209 18.3223Z" fill="#3F3E3D"/>
<path d="M47.1963 10.1774H50.9415V11.9686C51.3412 11.3149 51.8312 10.8137 52.4104 10.4654C52.9896 10.1175 53.6655 9.94306 54.438 9.94306H54.7588C54.8759 9.94306 55.0103 9.95734 55.1623 9.98558V13.6744C54.6657 13.4184 54.1281 13.2905 53.5486 13.2905C52.6794 13.2905 52.0279 13.5574 51.5933 14.0897C51.1587 14.6229 50.9415 15.4014 50.9415 16.425V21.1157H47.1963V10.1774Z" fill="#3F3E3D"/>
<path d="M59.5488 21.1158H55.8035V10.1775H59.5488V21.1158ZM55.5557 5.97687C55.5557 5.67828 55.6105 5.39771 55.721 5.13482C55.8315 4.87193 55.983 4.64101 56.1764 4.44175C56.3695 4.2431 56.5932 4.08667 56.8489 3.97276C57.1041 3.85916 57.3763 3.80206 57.6661 3.80206C57.9558 3.80206 58.2281 3.85916 58.4835 3.97276C58.7383 4.08667 58.9627 4.2431 59.1557 4.44175C59.3488 4.64101 59.5006 4.87193 59.6108 5.13482C59.7211 5.39771 59.7765 5.67828 59.7765 5.97687C59.7765 6.27545 59.7211 6.55635 59.6108 6.81924C59.5006 7.08244 59.3488 7.31305 59.1557 7.51231C58.9627 7.71158 58.7383 7.86769 58.4835 7.98129C58.2281 8.0952 57.9558 8.15169 57.6661 8.15169C57.3763 8.15169 57.1041 8.0952 56.8489 7.98129C56.5932 7.86769 56.3695 7.71158 56.1764 7.51231C55.983 7.31305 55.8315 7.08244 55.721 6.81924C55.6105 6.55635 55.5557 6.27545 55.5557 5.97687Z" fill="#3F3E3D"/>
<path d="M61.0791 3.41843H64.8243V11.5637C65.3343 10.924 65.8517 10.4941 66.3761 10.2734C66.9001 10.0534 67.5142 9.94318 68.2175 9.94318C69.5557 9.94318 70.5661 10.3234 71.2489 11.0838C71.9314 11.8442 72.273 12.8716 72.273 14.1649V21.1158H68.5277V15.5933C68.5277 15.039 68.4865 14.5914 68.4036 14.2503C68.3208 13.9089 68.1829 13.6463 67.9901 13.461C67.6591 13.1624 67.2588 13.0134 66.7899 13.0134C66.1553 13.0134 65.6689 13.2087 65.3312 13.5997C64.993 13.9911 64.8243 14.5489 64.8243 15.2736V21.1158H61.0791V3.41843Z" fill="#3F3E3D"/>
<path d="M77.2591 15.6146C77.2591 15.9702 77.3212 16.3008 77.4456 16.6059C77.5697 16.9122 77.7383 17.1785 77.9525 17.4057C78.166 17.6332 78.4211 17.8108 78.7181 17.9387C79.0145 18.0665 79.3352 18.1305 79.6801 18.1305C80.0114 18.1305 80.3249 18.0665 80.6213 17.9387C80.9176 17.8108 81.173 17.6332 81.3872 17.4057C81.6007 17.1785 81.7727 16.9153 81.9046 16.6168C82.035 16.3185 82.1007 15.9985 82.1007 15.6574C82.1007 15.316 82.035 14.9929 81.9046 14.6871C81.7727 14.3817 81.6007 14.1154 81.3872 13.8879C81.173 13.6601 80.9176 13.4826 80.6213 13.3547C80.3249 13.2268 80.0114 13.1626 79.6801 13.1626C79.3352 13.1626 79.0145 13.2268 78.7181 13.3547C78.4211 13.4826 78.166 13.6601 77.9525 13.8879C77.7383 14.1154 77.5697 14.3749 77.4456 14.6657C77.3212 14.9575 77.2591 15.2734 77.2591 15.6146ZM81.9766 10.1774H85.7423V21.116H81.9766V19.9002C81.1767 20.9381 80.0939 21.4568 78.7283 21.4568C77.9558 21.4568 77.2453 21.3112 76.5971 21.0201C75.9484 20.729 75.3831 20.3199 74.9006 19.7941C74.4175 19.268 74.0419 18.6494 73.7729 17.9387C73.504 17.2279 73.3696 16.4535 73.3696 15.6146C73.3696 14.833 73.5003 14.09 73.7624 13.3867C74.0244 12.683 74.3903 12.0682 74.859 11.5421C75.3279 11.0163 75.8863 10.6007 76.5351 10.295C77.1832 9.98927 77.9007 9.83656 78.6868 9.83656C80.0114 9.83656 81.1074 10.313 81.9766 11.2649V10.1774Z" fill="#3F3E3D"/>
<path d="M87.252 10.1774H90.9975V11.5635C91.5074 10.9239 92.0248 10.494 92.5489 10.2736C93.073 10.0532 93.6871 9.94306 94.3904 9.94306C95.1355 9.94306 95.7734 10.0675 96.3044 10.3161C96.8354 10.5647 97.2869 10.9167 97.6597 11.3714C97.963 11.7414 98.1699 12.1533 98.2802 12.608C98.3904 13.0636 98.4458 13.5822 98.4458 14.1648V21.1157H94.7006V15.5932C94.7006 15.0531 94.6623 14.6164 94.587 14.2821C94.5111 13.9482 94.3765 13.6816 94.1837 13.4823C94.0181 13.3119 93.832 13.1915 93.625 13.1198C93.4181 13.049 93.1971 13.0133 92.9627 13.0133C92.3281 13.0133 91.8417 13.2089 91.5041 13.5996C91.1659 13.991 90.9975 14.5488 90.9975 15.2735V21.1157H87.252V10.1774Z" fill="#3F3E3D"/>
<path d="M104.136 13.3969V21.1157H100.39V13.3969H99.1489V10.1774H100.39V6.89391H104.136V10.1774H106.267V13.3969H104.136Z" fill="#3F3E3D"/>
<path d="M112.084 12.914H112.914C114.954 12.914 115.975 12.1052 115.975 10.4866C115.975 8.92101 114.923 8.13824 112.819 8.13824H112.084V12.914ZM112.084 15.0367V21.198H109.862V6.02519H112.379C113.613 6.02519 114.544 6.11365 115.174 6.29056C115.809 6.46717 116.369 6.80175 116.852 7.29308C117.697 8.14476 118.12 9.21898 118.12 10.516C118.12 11.9053 117.669 13.0059 116.766 13.8182C115.864 14.6304 114.646 15.0367 113.114 15.0367H112.084Z" fill="#26A94F"/>
<path d="M121.713 6.025V19.046H126.042V21.1981H119.491V6.025H121.713Z" fill="#26A94F"/>
<path d="M129.006 6.02509V15.1642C129.006 16.4681 129.212 17.4215 129.626 18.024C130.242 18.8955 131.11 19.3313 132.229 19.3313C133.354 19.3313 134.225 18.8955 134.842 18.024C135.255 17.4411 135.461 16.4876 135.461 15.1642V6.02509H137.684V15.7933C137.684 17.392 137.2 18.7087 136.234 19.7438C135.147 20.8971 133.812 21.4735 132.229 21.4735C130.646 21.4735 129.314 20.8971 128.233 19.7438C127.267 18.7087 126.784 17.392 126.784 15.7933V6.02509H129.006Z" fill="#26A94F"/>
<path d="M148.619 8.28538L146.817 9.38598C146.479 8.78354 146.159 8.38998 145.853 8.20686C145.535 7.99704 145.125 7.89244 144.623 7.89244C144.007 7.89244 143.495 8.07246 143.088 8.43281C142.681 8.78633 142.477 9.23234 142.477 9.7693C142.477 10.5099 143.011 11.1058 144.08 11.5577L145.548 12.1769C146.743 12.6747 147.617 13.2825 148.17 14.0001C148.724 14.7173 149 15.5966 149 16.6383C149 18.034 148.549 19.1871 147.646 20.0974C146.737 21.0146 145.608 21.4736 144.26 21.4736C142.983 21.4736 141.927 21.0838 141.095 20.3038C140.275 19.5242 139.763 18.4267 139.56 17.012L141.81 16.5008C141.912 17.3919 142.09 18.0076 142.344 18.3481C142.802 19.0033 143.469 19.3311 144.347 19.3311C145.039 19.3311 145.615 19.0918 146.072 18.6135C146.53 18.1355 146.759 17.5294 146.759 16.7956C146.759 16.5008 146.719 16.2304 146.64 15.9849C146.561 15.7394 146.437 15.5135 146.268 15.3071C146.1 15.1007 145.882 14.9073 145.615 14.7266C145.348 14.5466 145.03 14.375 144.661 14.2111L143.24 13.6018C141.225 12.7241 140.217 11.4401 140.217 9.74974C140.217 8.60941 140.641 7.65656 141.486 6.88961C142.331 6.11677 143.383 5.73035 144.642 5.73035C146.34 5.73035 147.665 6.58203 148.619 8.28538Z" fill="#26A94F"/>
</svg>
