<svg width="512" height="512" viewBox="0 0 512 512" fill="none" xmlns="http://www.w3.org/2000/svg">
<path fill-rule="evenodd" clip-rule="evenodd" d="M149.334 80C111.042 80 80.0005 111.042 80.0005 149.334V362.666C80.0005 400.959 111.042 432 149.334 432H362.666C400.959 432 432 400.959 432 362.666V149.334C432 111.042 400.959 80 362.666 80H149.334ZM48.0005 149.334C48.0005 93.3685 93.3689 48 149.334 48H362.666C418.632 48 464 93.3685 464 149.334V362.666C464 418.632 418.632 464 362.666 464H149.334C93.3689 464 48.0005 418.632 48.0005 362.666V149.334Z" fill="#34B350"/>
<path fill-rule="evenodd" clip-rule="evenodd" d="M309.676 173.918C316.599 179.409 317.76 189.473 312.269 196.397L223.095 308.823C217.923 315.345 208.612 316.81 201.685 312.193L144.297 273.934L76.415 361.185C70.9889 368.159 60.9363 369.415 53.9619 363.989C46.9876 358.563 45.7325 348.51 51.1587 341.535L128.172 242.549C133.319 235.932 142.7 234.41 149.674 239.061L207.178 277.397L287.198 176.511C292.689 169.587 302.753 168.426 309.676 173.918Z" fill="#34B350"/>
<path fill-rule="evenodd" clip-rule="evenodd" d="M225.494 183.894C225.494 175.056 232.657 167.894 241.494 167.894H308.907C317.744 167.894 324.907 175.056 324.907 183.894V251.094C324.907 259.929 317.744 267.094 308.907 267.094C300.071 267.094 292.907 259.929 292.907 251.094V199.894H241.494C232.657 199.894 225.494 192.729 225.494 183.894Z" fill="#34B350"/>
</svg>
