<svg width="24" height="24" viewBox="0 0 24 24" fill="none" xmlns="http://www.w3.org/2000/svg">
<g clip-path="url(#clip0_9714_1941)">
<path d="M9.47909 1H2.60411C1.71956 1 1 1.71956 1 2.60411V6.7291C1 7.61381 1.71956 8.33337 2.60411 8.33337H9.47909C10.3638 8.33337 11.0834 7.61381 11.0834 6.7291V2.60411C11.0834 1.71956 10.3638 1 9.47909 1Z" stroke="#434343" stroke-opacity="0.64" stroke-linecap="round" stroke-linejoin="round"/>
<path d="M9.47909 10.1667H2.60411C1.71956 10.1667 1 10.8863 1 11.771V21.396C1 22.2805 1.71956 23.0001 2.60411 23.0001H9.47909C10.3638 23.0001 11.0834 22.2805 11.0834 21.396V11.771C11.0834 10.8863 10.3638 10.1667 9.47909 10.1667Z" stroke="#434343" stroke-opacity="0.64" stroke-linecap="round" stroke-linejoin="round"/>
<path d="M21.3958 15.6667H14.5208C13.6361 15.6667 12.9165 16.3863 12.9165 17.271V21.396C12.9165 22.2806 13.6361 23.0001 14.5208 23.0001H21.3958C22.2803 23.0001 22.9999 22.2806 22.9999 21.396V17.271C22.9999 16.3863 22.2803 15.6667 21.3958 15.6667Z" stroke="#434343" stroke-opacity="0.64" stroke-linecap="round" stroke-linejoin="round"/>
<path d="M21.3958 1H14.5208C13.6361 1 12.9165 1.71956 12.9165 2.60411V12.2291C12.9165 13.1138 13.6361 13.8334 14.5208 13.8334H21.3958C22.2803 13.8334 22.9999 13.1138 22.9999 12.2291V2.60411C22.9999 1.71956 22.2803 1 21.3958 1Z" stroke="#434343" stroke-opacity="0.64" stroke-linecap="round" stroke-linejoin="round"/>
</g>
<defs>
<clipPath id="clip0_9714_1941">
<rect width="24" height="24" fill="white"/>
</clipPath>
</defs>
</svg>
