<svg width="30" height="30" viewBox="0 0 30 30" fill="none" xmlns="http://www.w3.org/2000/svg">
<path d="M5 7.8C5 7.32261 5.18323 6.86477 5.50938 6.52721C5.83553 6.18964 6.27788 6 6.73913 6H21.5217M5 7.8V22.2C5 22.6774 5.18323 23.1352 5.50938 23.4728C5.83553 23.8104 6.27788 24 6.73913 24H24.1304C24.3611 24 24.5822 23.9052 24.7453 23.7364C24.9084 23.5676 25 23.3387 25 23.1V10.5C25 10.2613 24.9084 10.0324 24.7453 9.8636C24.5822 9.69482 24.3611 9.6 24.1304 9.6H6.73913C6.27788 9.6 5.83553 9.41036 5.50938 9.07279C5.18323 8.73523 5 8.27739 5 7.8Z" stroke="#00C802" stroke-width="1.2" stroke-linecap="round" stroke-linejoin="round"/>
<path fill-rule="evenodd" clip-rule="evenodd" d="M5 7.7998V22.1998C5 22.6772 5.18323 23.135 5.50938 23.4726C5.83553 23.8101 6.27788 23.9998 6.73913 23.9998H24.1304C24.3611 23.9998 24.5822 23.905 24.7453 23.7362C24.9084 23.5674 25 23.3385 25 23.0998V10.4998C25 10.2611 24.9084 10.0322 24.7453 9.86341C24.5822 9.69462 24.3611 9.5998 24.1304 9.5998H6.73913C6.27788 9.5998 5.83553 9.41016 5.50938 9.07259C5.18323 8.73502 5 8.27719 5 7.7998ZM22 16C22 16.5523 21.5523 17 21 17C20.4477 17 20 16.5523 20 16C20 15.4477 20.4477 15 21 15C21.5523 15 22 15.4477 22 16Z" fill="#00C802"/>
</svg>
