<svg width="28" height="28" viewBox="0 0 28 28" fill="none" xmlns="http://www.w3.org/2000/svg">
<circle cx="14" cy="14" r="9" fill="#76C2AF"/>
<g opacity="0.2">
<g opacity="0.2">
<path opacity="0.2" d="M14 5.21237C8.68438 5.21237 4.375 9.52175 4.375 14.8374C4.375 20.153 8.68438 24.4624 14 24.4624C19.3156 24.4624 23.625 20.153 23.625 14.8374C23.625 9.52175 19.3156 5.21237 14 5.21237ZM6.14819 10.815C6.24006 11.1842 6.05631 11.8475 5.91456 12.8004C5.74919 13.9116 6.63512 13.6714 6.60537 14.7223C6.57562 15.7732 7.38631 16.2089 7.28088 16.3139C7.17588 16.4189 6.75544 16.569 7.38587 17.9357C8.01631 19.3021 8.55706 19.7076 8.63231 20.4431C8.70756 21.1789 9.51825 22.26 9.51825 22.26L9.56331 22.4621C6.94094 20.9304 5.17431 18.0871 5.17431 14.8374C5.17431 13.3888 5.52738 12.0221 6.14819 10.815ZM10.5092 22.6651C10.4641 22.47 10.5543 21.4187 11.8156 20.9987C13.0769 20.5782 12.8664 20.0226 13.2418 19.4823C13.6172 18.942 13.6924 18.5364 12.9714 18.3711C12.2509 18.2057 11.5001 18.0858 10.8544 17.0647C10.2086 16.0436 9.30781 16.0138 8.82744 15.6984C8.34706 15.3829 7.95637 15.4433 7.371 15.3681C6.78562 15.2928 6.98075 13.6566 7.0105 13.2961C7.04069 12.9356 6.65 13.4164 6.36475 13.1666C6.0795 12.9167 6.63513 11.7495 7.19075 11.7946C7.74638 11.8396 7.61119 12.11 7.71619 12.7256C7.82119 13.3411 8.01631 13.1911 8.06138 12.9959C8.10644 12.8008 8.13663 11.9748 8.33175 11.7197C8.52688 11.4647 8.57194 10.7739 9.20281 10.8036C9.83325 10.8338 9.81838 10.2331 10.2839 10.4282C10.7494 10.6234 11.0797 10.4733 10.7796 10.2182C10.4794 9.96318 10.6444 9.70768 11.1549 9.87306C11.6655 10.0384 11.6953 9.13718 11.6056 8.67168C11.5154 8.20618 11.1401 8.071 10.6746 8.35625C10.2091 8.6415 9.86387 8.52162 10.1041 8.04081C10.3442 7.56043 11.2901 7.96556 11.8606 8.20618C12.4311 8.44637 12.5812 7.57575 12.2662 7.15531C11.9508 6.73487 11.9359 6.93 11.0351 6.98993C10.6763 7.014 10.7131 6.82106 10.8872 6.58043C11.8558 6.21381 12.9049 6.01168 14.0004 6.01168C15.1095 6.01168 16.1704 6.21906 17.1491 6.59443C17.2725 6.76681 17.3224 6.90243 17.2366 6.95975C16.8761 7.19993 16.5611 6.98556 16.6661 7.65581C16.7711 8.32606 17.2668 9.12231 17.6571 8.85937C18.0473 8.59643 18.7233 8.92675 18.1374 9.28725C17.5521 9.64775 17.3867 9.61756 17.1163 9.85775C16.8459 10.0979 16.9662 9.97806 17.2366 10.2782C17.507 10.5783 17.4768 10.6387 17.1014 10.7887C16.7261 10.9388 16.5008 11.2691 16.8613 11.6445C17.2218 12.0199 17.4619 12.3353 17.8671 11.6445C18.2726 10.9537 18.3474 10.3534 18.6931 10.5332C19.0383 10.7135 19.4289 11.2691 19.684 10.9537C19.9391 10.6382 19.894 10.4282 20.2396 10.6684C20.5848 10.9086 21.8614 10.9235 21.0053 11.5544C20.1495 12.1848 20.2996 12.4552 19.894 12.3804C19.4884 12.3051 17.6566 11.9149 17.2362 12.936C16.8157 13.9571 15.2841 14.7678 16.0799 15.7587C16.8757 16.7497 16.6954 17.4702 17.8364 17.6207C18.9774 17.7708 19.5633 17.2602 19.8485 17.7861C20.1338 18.312 19.9084 18.3719 19.9238 19.1673C19.9312 19.5619 20.1416 20.3052 20.3516 20.9562C18.7451 22.6231 16.4924 23.6635 14 23.6635C12.7452 23.6635 11.5513 23.3984 10.4694 22.9241C10.5018 22.7994 10.5184 22.7049 10.5092 22.6651Z" fill="#231F20"/>
</g>
<g opacity="0.2">
<path opacity="0.2" d="M14.0376 7.96557C14.3141 7.79932 14.3377 8.0255 14.5779 7.25988C14.8181 6.49425 13.6771 6.38882 13.1364 6.47894C12.596 6.56907 12.8362 6.79438 12.8362 6.79438C13.0165 7.07963 13.1355 8.1305 12.8131 8.52119C12.4911 8.91144 13.0764 8.98669 13.3315 8.62619C13.5874 8.26569 13.7384 8.14538 14.0376 7.96557Z" fill="#231F20"/>
</g>
</g>
<path d="M14 4.41306C8.68438 4.41306 4.375 8.72243 4.375 14.0381C4.375 19.3537 8.68438 23.6631 14 23.6631C19.3156 23.6631 23.625 19.3537 23.625 14.0381C23.625 8.72243 19.3156 4.41306 14 4.41306ZM6.14819 10.0157C6.24006 10.3849 6.05631 11.0482 5.91456 12.0011C5.74919 13.1123 6.63512 12.8721 6.60537 13.923C6.57562 14.9739 7.38631 15.4096 7.28088 15.5146C7.17588 15.6196 6.75544 15.7697 7.38587 17.1364C8.01631 18.5027 8.55706 18.9083 8.63231 19.6437C8.70756 20.3796 9.51825 21.4607 9.51825 21.4607L9.56331 21.6628C6.94094 20.1311 5.17431 17.2878 5.17431 14.0381C5.17431 12.5895 5.52738 11.2227 6.14819 10.0157ZM10.5092 21.8658C10.4641 21.6707 10.5543 20.6194 11.8156 20.1994C13.0769 19.7789 12.8664 19.2233 13.2418 18.683C13.6172 18.1427 13.6924 17.7371 12.9714 17.5717C12.2509 17.4064 11.5001 17.2865 10.8544 16.2654C10.2086 15.2442 9.30781 15.2145 8.82744 14.8991C8.34706 14.5836 7.95637 14.644 7.371 14.5687C6.78562 14.4935 6.98075 12.8572 7.0105 12.4967C7.04069 12.1362 6.65 12.6171 6.36475 12.3672C6.0795 12.1174 6.63513 10.9502 7.19075 10.9952C7.74638 11.0403 7.61119 11.3107 7.71619 11.9262C7.82119 12.5418 8.01631 12.3917 8.06138 12.1966C8.10644 12.0015 8.13663 11.1755 8.33175 10.9204C8.52688 10.6654 8.57194 9.97456 9.20281 10.0047C9.83325 10.0349 9.81838 9.43424 10.2839 9.62937C10.7494 9.82449 11.0797 9.67443 10.7796 9.41937C10.4794 9.16431 10.6444 8.90881 11.1549 9.07418C11.6655 9.23956 11.6953 8.33831 11.6056 7.87281C11.5154 7.40731 11.1401 7.27212 10.6746 7.55737C10.2091 7.84262 9.86387 7.72274 10.1041 7.24193C10.3442 6.76156 11.2901 7.16668 11.8606 7.40731C12.4311 7.64749 12.5812 6.77687 12.2662 6.35643C11.9508 5.93599 11.9359 6.13112 11.0351 6.19106C10.6763 6.21512 10.7131 6.02218 10.8872 5.78156C11.8558 5.41493 12.9049 5.21281 14.0004 5.21281C15.1095 5.21281 16.1704 5.42018 17.1491 5.79556C17.2725 5.96793 17.3224 6.10356 17.2366 6.16087C16.8761 6.40106 16.5611 6.18668 16.6661 6.85693C16.7711 7.52718 17.2668 8.32343 17.6571 8.06049C18.0473 7.79756 18.7233 8.12787 18.1374 8.48837C17.5521 8.84887 17.3867 8.81868 17.1163 9.05887C16.8459 9.29906 16.9662 9.17918 17.2366 9.47931C17.507 9.77943 17.4768 9.83981 17.1014 9.98987C16.7261 10.1399 16.5008 10.4702 16.8613 10.8456C17.2218 11.221 17.4619 11.5364 17.8671 10.8456C18.2726 10.1548 18.3474 9.55456 18.6931 9.73437C19.0383 9.91462 19.4289 10.4702 19.684 10.1548C19.9391 9.83937 19.894 9.62937 20.2396 9.86956C20.5848 10.1097 21.8614 10.1246 21.0053 10.7555C20.1495 11.3859 20.2996 11.6563 19.894 11.5815C19.4884 11.5062 17.6566 11.116 17.2362 12.1371C16.8157 13.1582 15.2841 13.9689 16.0799 14.9599C16.8757 15.9508 16.6954 16.6714 17.8364 16.8219C18.9774 16.9719 19.5633 16.4614 19.8485 16.9872C20.1338 17.5127 19.9084 17.5731 19.9238 18.3684C19.9312 18.7631 20.1416 19.5064 20.3516 20.1574C18.7451 21.8242 16.4924 22.8646 14 22.8646C12.7452 22.8646 11.5513 22.5995 10.4694 22.1252C10.5018 22.0001 10.5184 21.9056 10.5092 21.8658Z" fill="#4F5D73"/>
<path d="M14.0376 7.16624C14.3141 6.99999 14.3377 7.22617 14.5779 6.46055C14.8181 5.69492 13.6771 5.58949 13.1364 5.67961C12.596 5.76974 12.8362 5.99505 12.8362 5.99505C13.0165 6.2803 13.1355 7.33117 12.8131 7.72186C12.4911 8.11211 13.0764 8.18736 13.3315 7.82686C13.5865 7.46636 13.7384 7.34605 14.0376 7.16624Z" fill="#76C2AF"/>
</svg>
