<svg width="25" height="22" viewBox="0 0 25 22" fill="none" xmlns="http://www.w3.org/2000/svg">
<path d="M16.1641 1.56906C16.1252 1.53934 15.7644 1.27098 15.1218 1.01274C14.2939 0.680025 13.344 0.50415 12.3748 0.50415C11.4055 0.50415 10.4557 0.680025 9.62771 1.01274C8.98515 1.27098 8.6244 1.53934 8.5854 1.5691C8.38975 1.71831 8.2749 1.95029 8.2749 2.19634V3.43388L9.06367 3.85576L9.85248 3.43388V2.64301C10.2854 2.42209 11.1511 2.08168 12.3747 2.08168C13.5984 2.08168 14.4641 2.42209 14.897 2.64301V3.43384L15.6857 3.85571L16.4746 3.43384V2.19634C16.4747 1.95024 16.3598 1.71826 16.1641 1.56906Z" fill="#AC64E2"/>
<path d="M8.27502 3.43384V4.30478L9.06384 4.72665L9.85265 4.30478V3.43384H8.27502Z" fill="#9553C6"/>
<path d="M16.4747 3.43384H14.8971V4.30478L15.6859 4.72665L16.4747 4.30478V3.43384Z" fill="#9553C6"/>
<path d="M0.995972 12.9822V19.9896C0.995972 20.8215 1.67036 21.4959 2.50225 21.4959H22.2478C23.0797 21.4959 23.7541 20.8215 23.7541 19.9896V12.9822H0.995972Z" fill="#00AE4D"/>
<path d="M0.995972 12.1113V12.9822C2.24735 13.9758 5.55466 15.9046 12.375 15.9046C19.1954 15.9046 22.5027 13.9758 23.7541 12.9822V12.1112H0.995972V12.1113Z" fill="#215B4A"/>
<path d="M0.930562 11.6096C2.12986 12.586 5.43258 14.5845 12.375 14.5845C19.3174 14.5845 22.6201 12.586 23.8194 11.6096C24.171 11.3234 24.375 10.4726 24.375 10.0193V5.81109C24.375 4.9792 23.7006 4.30481 22.8687 4.30481H1.88128C1.04939 4.30481 0.375 4.9792 0.375 5.81109V10.0193C0.375 10.4726 0.579 11.3234 0.930562 11.6096Z" fill="#02C056"/>
<path d="M23.8194 11.1877C22.6201 12.1641 19.3174 14.1626 12.375 14.1626C5.43258 14.1626 2.12991 12.1641 0.930562 11.1877C0.579 10.9015 0.375 10.4726 0.375 10.0193V10.8903C0.375 11.3436 0.579 11.7725 0.930562 12.0587C2.12986 13.0351 5.43258 15.0336 12.375 15.0336C19.3174 15.0336 22.6201 13.0351 23.8194 12.0587C24.171 11.7725 24.375 11.3436 24.375 10.8903V10.0193C24.375 10.4726 24.171 10.9015 23.8194 11.1877Z" fill="#00AE4D"/>
<path d="M12.3748 16.4832C13.1541 16.4832 13.7857 15.9046 13.7857 14.6504V13.7949C13.7857 13.5176 13.5609 13.2928 13.2837 13.2928H11.4659C11.1886 13.2928 10.9639 13.5177 10.9639 13.7949V14.6505C10.9638 15.9046 11.5956 16.4832 12.3748 16.4832Z" fill="#D6E56E"/>
<path d="M12.3748 16.0613C11.5956 16.0613 10.9639 15.4296 10.9639 14.6504V15.5214C10.9639 16.3006 11.5956 16.9323 12.3748 16.9323C13.1541 16.9323 13.7857 16.3006 13.7857 15.5214V14.6504C13.7857 15.4296 13.1541 16.0613 12.3748 16.0613Z" fill="#BDCB5E"/>
</svg>
