<svg width="28" height="28" viewBox="0 0 28 28" fill="none" xmlns="http://www.w3.org/2000/svg">
<path fill-rule="evenodd" clip-rule="evenodd" d="M14.4525 11.0215C14.7839 11.0215 15.0525 11.2901 15.0525 11.6215L15.0526 24.3618C15.0526 24.6932 14.7839 24.9618 14.4526 24.9618C14.1212 24.9618 13.8526 24.6932 13.8526 24.3618L13.8525 11.6215C13.8525 11.2901 14.1212 11.0215 14.4525 11.0215Z" fill="#3F3F3F"/>
<path fill-rule="evenodd" clip-rule="evenodd" d="M14.4526 3C14.7839 3 15.0526 3.26863 15.0526 3.6L15.0525 6.90305C15.0525 7.23442 14.7839 7.50305 14.4525 7.50305C14.1212 7.50305 13.8525 7.23442 13.8525 6.90305L13.8526 3.6C13.8526 3.26863 14.1212 3 14.4526 3Z" fill="#3F3F3F"/>
<path fill-rule="evenodd" clip-rule="evenodd" d="M14.4525 7.50273C13.4808 7.50273 12.6932 8.29041 12.6932 9.26205C12.6932 10.2337 13.4808 11.0214 14.4525 11.0214C15.4241 11.0214 16.2118 10.2337 16.2118 9.26205C16.2118 8.29041 15.4241 7.50273 14.4525 7.50273ZM11.4932 9.26205C11.4932 7.62767 12.8181 6.30273 14.4525 6.30273C16.0869 6.30273 17.4118 7.62767 17.4118 9.26205C17.4118 10.8964 16.0869 12.2214 14.4525 12.2214C12.8181 12.2214 11.4932 10.8964 11.4932 9.26205Z" fill="#3F3F3F"/>
<path fill-rule="evenodd" clip-rule="evenodd" d="M22.9467 20.459C23.278 20.459 23.5467 20.7276 23.5467 21.059L23.5468 24.362C23.5468 24.6934 23.2782 24.962 22.9468 24.962C22.6154 24.962 22.3468 24.6934 22.3468 24.3621L22.3467 21.059C22.3467 20.7276 22.6153 20.459 22.9467 20.459Z" fill="#3F3F3F"/>
<path fill-rule="evenodd" clip-rule="evenodd" d="M22.9468 3C23.2782 3 23.5468 3.26863 23.5468 3.6L23.5467 16.3403C23.5467 16.6717 23.278 16.9403 22.9467 16.9403C22.6153 16.9403 22.3467 16.6717 22.3467 16.3403L22.3468 3.6C22.3468 3.26862 22.6154 3 22.9468 3Z" fill="#3F3F3F"/>
<path fill-rule="evenodd" clip-rule="evenodd" d="M22.9466 16.9402C21.975 16.9402 21.1873 17.7279 21.1873 18.6996C21.1873 19.6712 21.975 20.4589 22.9466 20.4589C23.9183 20.4589 24.7059 19.6712 24.7059 18.6996C24.7059 17.7279 23.9183 16.9402 22.9466 16.9402ZM19.9873 18.6996C19.9873 17.0652 21.3122 15.7402 22.9466 15.7402C24.581 15.7402 25.9059 17.0652 25.9059 18.6996C25.9059 20.3339 24.581 21.6589 22.9466 21.6589C21.3122 21.6589 19.9873 20.3339 19.9873 18.6996Z" fill="#3F3F3F"/>
<path fill-rule="evenodd" clip-rule="evenodd" d="M5.95945 16.6836C6.29082 16.6836 6.55945 16.9522 6.55944 17.2836L6.55938 24.3616C6.55937 24.6929 6.29074 24.9616 5.95937 24.9616C5.628 24.9616 5.35937 24.6929 5.35938 24.3615L5.35944 17.2836C5.35945 16.9522 5.62808 16.6836 5.95945 16.6836Z" fill="#3F3F3F"/>
<path fill-rule="evenodd" clip-rule="evenodd" d="M5.95937 3C6.29074 3 6.55937 3.26862 6.55938 3.6L6.55944 12.5654C6.55945 12.8968 6.29082 13.1654 5.95945 13.1654C5.62808 13.1654 5.35945 12.8968 5.35944 12.5654L5.35938 3.6C5.35937 3.26863 5.628 3 5.95937 3Z" fill="#3F3F3F"/>
<path fill-rule="evenodd" clip-rule="evenodd" d="M5.95932 13.1658C4.98767 13.1658 4.2 13.9535 4.2 14.9251C4.2 15.8968 4.98767 16.6845 5.95932 16.6845C6.93097 16.6845 7.71864 15.8968 7.71864 14.9251C7.71864 13.9535 6.93097 13.1658 5.95932 13.1658ZM3 14.9251C3 13.2908 4.32493 11.9658 5.95932 11.9658C7.59371 11.9658 8.91864 13.2908 8.91864 14.9251C8.91864 16.5595 7.59371 17.8845 5.95932 17.8845C4.32493 17.8845 3 16.5595 3 14.9251Z" fill="#3F3F3F"/>
</svg>
