<svg width="30" height="30" viewBox="0 0 30 30" fill="none" xmlns="http://www.w3.org/2000/svg">
<path d="M15 22V20" stroke="#00C802" stroke-width="1.2" stroke-linecap="round" stroke-linejoin="round"/>
<path fill-rule="evenodd" clip-rule="evenodd" d="M8 5H22C23.1046 5 24 5.89543 24 7V17.6667C24 18.7713 23.1046 19.6667 22 19.6667H8C6.89543 19.6667 6 18.7713 6 17.6667V7C6 5.89543 6.89543 5 8 5ZM20.1697 9.39991H20.169H20.164H17.503C17.1716 9.39991 16.903 9.66854 16.903 9.99991C16.903 10.3313 17.1716 10.5999 17.503 10.5999H18.6031L15.4259 13.4594L13.457 11.6872C13.2288 11.4819 12.8824 11.4819 12.6543 11.6872L9.09865 14.8872C8.85235 15.1089 8.83238 15.4883 9.05405 15.7346C9.27572 15.9809 9.6551 16.0009 9.90141 15.7792L13.0556 12.9404L15.0245 14.7126C15.2527 14.9179 15.5991 14.918 15.8273 14.7126L19.5697 11.3445V12.6666C19.5697 12.998 19.8383 13.2666 20.1697 13.2666C20.501 13.2666 20.7697 12.998 20.7697 12.6666V9.99991C20.7697 9.66854 20.501 9.39991 20.1697 9.39991Z" fill="#00C802"/>
<path d="M12 25L15 22L18 25" stroke="#00C802" stroke-width="1.2" stroke-linecap="round" stroke-linejoin="round"/>
</svg>
