<svg width="95" height="14" viewBox="0 0 95 14" fill="none" xmlns="http://www.w3.org/2000/svg">
<path d="M7.96627 9.09297L6.51169 4.94342L5.05735 9.09297H7.96627ZM8.8254 11.5564H4.19773L3.45433 13.7224H0L4.74338 1.25666H8.28023L13.0234 13.7224H9.56953L8.8254 11.5564Z" fill="#3F3E3D"/>
<path d="M13.519 5.24088H16.5107V6.62976C16.83 6.12292 17.2214 5.73424 17.6841 5.46422C18.1467 5.19443 18.6866 5.05918 19.3037 5.05918H19.5599C19.6535 5.05918 19.7608 5.07025 19.8823 5.09215V7.95246C19.4856 7.75391 19.0561 7.65475 18.5932 7.65475C17.8989 7.65475 17.3785 7.86173 17.0314 8.27447C16.6842 8.68793 16.5107 9.29152 16.5107 10.0852V13.7224H13.519V5.24088Z" fill="#3F3E3D"/>
<path d="M23.3857 13.7224H20.394V5.24088H23.3857V13.7224ZM20.196 1.98371C20.196 1.75219 20.2398 1.53464 20.3281 1.33079C20.4164 1.12695 20.5374 0.947893 20.6919 0.793386C20.8461 0.639359 21.0249 0.518061 21.2291 0.429736C21.4329 0.341653 21.6504 0.297373 21.8818 0.297373C22.1133 0.297373 22.3308 0.341653 22.5348 0.429736C22.7383 0.518061 22.9175 0.639359 23.0718 0.793386C23.226 0.947893 23.3472 1.12695 23.4353 1.33079C23.5233 1.53464 23.5676 1.75219 23.5676 1.98371C23.5676 2.21523 23.5233 2.43304 23.4353 2.63688C23.3472 2.84097 23.226 3.01978 23.0718 3.17429C22.9175 3.3288 22.7383 3.44985 22.5348 3.53793C22.3308 3.62626 22.1133 3.67006 21.8818 3.67006C21.6504 3.67006 21.4329 3.62626 21.2291 3.53793C21.0249 3.44985 20.8461 3.3288 20.6919 3.17429C20.5374 3.01978 20.4164 2.84097 20.3281 2.63688C20.2398 2.43304 20.196 2.21523 20.196 1.98371Z" fill="#3F3E3D"/>
<path d="M24.6077 -9.15527e-05H27.5993V6.31569C28.0067 5.81968 28.42 5.48636 28.8388 5.31525C29.2575 5.14461 29.748 5.05918 30.3098 5.05918C31.3787 5.05918 32.1859 5.35399 32.7313 5.94362C33.2764 6.53325 33.5493 7.32986 33.5493 8.33271V13.7224H30.5576V9.44025C30.5576 9.01042 30.5246 8.66338 30.4585 8.39889C30.3923 8.13416 30.2821 7.93056 30.1281 7.78688C29.8637 7.55536 29.544 7.43984 29.1694 7.43984C28.6625 7.43984 28.2739 7.59122 28.0043 7.89446C27.7341 8.19794 27.5993 8.63041 27.5993 9.19237V13.7224H24.6077V-9.15527e-05Z" fill="#3F3E3D"/>
<path d="M37.5322 9.45677C37.5322 9.73257 37.5818 9.98888 37.6811 10.2255C37.7803 10.463 37.915 10.6695 38.086 10.8457C38.2566 11.0221 38.4604 11.1597 38.6976 11.2589C38.9343 11.358 39.1906 11.4076 39.466 11.4076C39.7307 11.4076 39.9811 11.358 40.2179 11.2589C40.4546 11.1597 40.6586 11.0221 40.8297 10.8457C41.0003 10.6695 41.1376 10.4654 41.243 10.2339C41.3472 10.0026 41.3996 9.75447 41.3996 9.48998C41.3996 9.22525 41.3472 8.97472 41.243 8.73766C41.1376 8.50085 41.0003 8.29436 40.8297 8.11795C40.6586 7.9413 40.4546 7.80364 40.2179 7.70449C39.9811 7.60533 39.7307 7.55551 39.466 7.55551C39.1906 7.55551 38.9343 7.60533 38.6976 7.70449C38.4604 7.80364 38.2566 7.9413 38.086 8.11795C37.915 8.29436 37.7803 8.49555 37.6811 8.72106C37.5818 8.94728 37.5322 9.19228 37.5322 9.45677ZM41.3005 5.2408H44.3085V13.7226H41.3005V12.7799C40.6615 13.5847 39.7966 13.9868 38.7058 13.9868C38.0887 13.9868 37.5211 13.8739 37.0034 13.6482C36.4852 13.4225 36.0336 13.1053 35.6482 12.6976C35.2623 12.2896 34.9623 11.81 34.7474 11.2589C34.5326 10.7078 34.4253 10.1073 34.4253 9.45677C34.4253 8.85078 34.5297 8.27462 34.739 7.72928C34.9483 7.18369 35.2406 6.70693 35.615 6.299C35.9896 5.89131 36.4356 5.56906 36.9538 5.33201C37.4716 5.09495 38.0447 4.97654 38.6726 4.97654C39.7307 4.97654 40.6062 5.34597 41.3005 6.08409V5.2408Z" fill="#3F3E3D"/>
<path d="M45.5151 5.24088H48.5071V6.31569C48.9144 5.81968 49.3277 5.48636 49.7463 5.31549C50.1649 5.14461 50.6555 5.05918 51.2173 5.05918C51.8125 5.05918 52.322 5.15568 52.7462 5.34846C53.1703 5.54123 53.531 5.81414 53.8288 6.16672C54.0711 6.45359 54.2364 6.77296 54.3244 7.12553C54.4125 7.47883 54.4567 7.88098 54.4567 8.33271V13.7224H51.4651V9.44025C51.4651 9.02149 51.4345 8.68288 51.3744 8.42368C51.3137 8.16472 51.2062 7.95799 51.0522 7.80348C50.9199 7.67136 50.7712 7.57798 50.6059 7.52239C50.4406 7.46752 50.2641 7.43984 50.0769 7.43984C49.57 7.43984 49.1814 7.59146 48.9117 7.89446C48.6415 8.19794 48.5071 8.63041 48.5071 9.19237V13.7224H45.5151V5.24088Z" fill="#3F3E3D"/>
<path d="M59.0012 7.7373V13.7224H56.0095V7.7373H55.0178V5.24088H56.0095V2.69488H59.0012V5.24088H60.7033V7.7373H59.0012Z" fill="#3F3E3D"/>
<path d="M65.3505 7.36204H66.013C67.643 7.36204 68.4581 6.73487 68.4581 5.47979C68.4581 4.26588 67.6178 3.65892 65.937 3.65892H65.3505V7.36204ZM65.3505 9.00795V13.7854H63.5752V2.02047H65.5862C66.5714 2.02047 67.3156 2.08906 67.8184 2.22624C68.326 2.36318 68.773 2.62261 69.1589 3.00359C69.8343 3.66397 70.172 4.49692 70.172 5.50266C70.172 6.57988 69.8114 7.43328 69.0904 8.0631C68.3693 8.69292 67.3969 9.00795 66.173 9.00795H65.3505Z" fill="#26A94F"/>
<path d="M73.0419 2.02023V12.1166H76.5003V13.7854H71.2668V2.02023H73.0419Z" fill="#26A94F"/>
<path d="M78.8671 2.02136V9.10775C78.8671 10.1188 79.0319 10.8581 79.3622 11.3252C79.8544 12.001 80.5476 12.3389 81.4416 12.3389C82.3407 12.3389 83.0359 12.001 83.5287 11.3252C83.8587 10.8733 84.0238 10.134 84.0238 9.10775V2.02136H85.7988V9.59558C85.7988 10.8352 85.4127 11.8562 84.6409 12.6588C83.7726 13.5531 82.7059 14 81.4416 14C80.1771 14 79.113 13.5531 78.25 12.6588C77.4782 11.8562 77.092 10.8352 77.092 9.59558V2.02136H78.8671Z" fill="#26A94F"/>
<path d="M94.5344 3.77388L93.095 4.62729C92.8255 4.16015 92.5693 3.85499 92.3254 3.713C92.0716 3.55031 91.7439 3.4692 91.3426 3.4692C90.8503 3.4692 90.4413 3.60879 90.1166 3.8882C89.7915 4.16232 89.6289 4.50816 89.6289 4.92451C89.6289 5.49873 90.0554 5.96081 90.9088 6.31122L92.0819 6.79135C93.0363 7.17738 93.7347 7.6486 94.1764 8.20502C94.6184 8.76119 94.8392 9.443 94.8392 10.2507C94.8392 11.3329 94.4786 12.227 93.7576 12.9329C93.0312 13.6441 92.1298 14 91.0532 14C90.0326 14 89.1896 13.6977 88.5246 13.0929C87.8695 12.4884 87.4607 11.6374 87.2981 10.5404L89.0957 10.1441C89.1768 10.835 89.3193 11.3125 89.5221 11.5765C89.888 12.0845 90.4211 12.3387 91.122 12.3387C91.6753 12.3387 92.1351 12.1531 92.5005 11.7823C92.8662 11.4116 93.0491 10.9416 93.0491 10.3727C93.0491 10.1441 93.0173 9.93444 92.954 9.74407C92.8905 9.55371 92.7914 9.3785 92.6567 9.21846C92.5222 9.05842 92.3482 8.90848 92.1351 8.76841C91.9219 8.62883 91.6678 8.49574 91.3731 8.36867L90.2383 7.89624C88.6285 7.21564 87.8235 6.22001 87.8235 4.90934C87.8235 4.02514 88.1616 3.2863 88.8366 2.69161C89.512 2.09235 90.3523 1.79273 91.358 1.79273C92.7139 1.79273 93.773 2.45311 94.5344 3.77388Z" fill="#26A94F"/>
</svg>
