<svg width="1491" height="240" viewBox="0 0 1491 240" fill="none" xmlns="http://www.w3.org/2000/svg">
<path d="M61.9854 240H1.33984V179.336H61.9854V240Z" fill="white"/>
<path d="M185.912 238.66H125.267V177.992H185.912V238.66Z" fill="white"/>
<path d="M61.9854 182.769H1.33984V122.104H61.9854V182.769Z" fill="white"/>
<path d="M128.974 178.592H68.3281V117.928H128.974V178.592Z" fill="white"/>
<path d="M185.912 181.428H125.267V120.764H185.912V181.428Z" fill="white"/>
<path d="M252.914 178.592H192.269V117.928H252.914V178.592Z" fill="white"/>
<path d="M61.9854 122.142H1.33984V61.4778H61.9854V122.142Z" fill="white"/>
<path d="M185.912 120.802H125.267V60.1375H185.912V120.802Z" fill="white"/>
<path d="M62.1846 61.0063V0.34177H0L62.6183 61.0063" fill="white"/>
<path d="M124.265 60.8369H62.0801V0.172279H124.265V60.8369Z" fill="white"/>
<path d="M123.729 -2.67029e-05V60.6646H185.913L123.729 -2.67029e-05Z" fill="white"/>
<path d="M402.454 146.203L384.244 94.256L366.037 146.203H402.454ZM413.209 177.042H355.276L345.969 204.157H302.725L362.107 48.1026H406.384L465.763 204.157H422.525L413.209 177.042Z" fill="white"/>
<path d="M471.966 97.9811H509.418V115.368C513.415 109.023 518.315 104.157 524.107 100.777C529.898 97.3997 536.657 95.7065 544.382 95.7065H547.59C548.762 95.7065 550.105 95.8451 551.626 96.1192V131.926C546.659 129.441 541.283 128.199 535.488 128.199C526.796 128.199 520.282 130.79 515.936 135.957C511.59 141.133 509.418 148.689 509.418 158.625V204.157H471.966V97.9811Z" fill="white"/>
<path d="M595.488 204.16H558.035V97.9827H595.488V204.16ZM555.557 57.2073C555.557 54.309 556.105 51.5854 557.21 49.0336C558.315 46.4817 559.83 44.2402 561.764 42.306C563.695 40.3778 565.932 38.8593 568.49 37.7536C571.041 36.6509 573.763 36.0965 576.661 36.0965C579.558 36.0965 582.281 36.6509 584.835 37.7536C587.383 38.8593 589.627 40.3778 591.557 42.306C593.488 44.2402 595.006 46.4817 596.108 49.0336C597.211 51.5854 597.765 54.309 597.765 57.2073C597.765 60.1056 597.211 62.8323 596.108 65.3842C595.006 67.939 593.488 70.1776 591.557 72.1118C589.627 74.046 587.383 75.5614 584.835 76.6641C582.281 77.7698 579.558 78.3182 576.661 78.3182C573.763 78.3182 571.041 77.7698 568.49 76.6641C565.932 75.5614 563.695 74.046 561.764 72.1118C559.83 70.1776 558.315 67.939 557.21 65.3842C556.105 62.8323 555.557 60.1056 555.557 57.2073Z" fill="white"/>
<path d="M610.796 32.3726H648.249V111.438C653.348 105.229 658.522 101.056 663.766 98.9137C669.006 96.7776 675.148 95.7081 682.18 95.7081C695.562 95.7081 705.667 99.3988 712.495 106.78C719.32 114.162 722.735 124.134 722.735 136.688V204.16H685.283V150.553C685.283 145.172 684.87 140.828 684.042 137.517C683.213 134.203 681.834 131.654 679.906 129.855C676.596 126.957 672.593 125.511 667.904 125.511C661.558 125.511 656.694 127.406 653.318 131.202C649.935 135.001 648.249 140.415 648.249 147.45V204.16H610.796V32.3726Z" fill="white"/>
<path d="M772.592 150.758C772.592 154.21 773.212 157.419 774.456 160.381C775.697 163.354 777.383 165.939 779.525 168.145C781.66 170.353 784.211 172.076 787.181 173.318C790.145 174.559 793.352 175.18 796.801 175.18C800.114 175.18 803.249 174.559 806.213 173.318C809.177 172.076 811.731 170.353 813.872 168.145C816.008 165.939 817.728 163.385 819.047 160.486C820.351 157.591 821.007 154.485 821.007 151.174C821.007 147.859 820.351 144.723 819.047 141.755C817.728 138.791 816.008 136.206 813.872 133.997C811.731 131.786 809.177 130.063 806.213 128.821C803.249 127.58 800.114 126.957 796.801 126.957C793.352 126.957 790.145 127.58 787.181 128.821C784.211 130.063 781.66 131.786 779.525 133.997C777.383 136.206 775.697 138.725 774.456 141.548C773.212 144.38 772.592 147.447 772.592 150.758ZM819.767 97.9793H857.424V204.16H819.767V192.359C811.767 202.434 800.939 207.468 787.284 207.468C779.558 207.468 772.453 206.055 765.972 203.229C759.484 200.403 753.831 196.432 749.006 191.328C744.175 186.222 740.419 180.217 737.729 173.318C735.04 166.418 733.696 158.901 733.696 150.758C733.696 143.172 735.003 135.959 737.624 129.132C740.244 122.302 743.904 116.333 748.59 111.227C753.279 106.123 758.863 102.089 765.351 99.1212C771.833 96.1535 779.007 94.6712 786.868 94.6712C800.114 94.6712 811.074 99.2959 819.767 108.536V97.9793Z" fill="white"/>
<path d="M872.527 97.9811H909.983V111.436C915.082 105.227 920.256 101.054 925.496 98.9151C930.737 96.776 936.878 95.7065 943.911 95.7065C951.362 95.7065 957.741 96.9146 963.051 99.3278C968.361 101.741 972.876 105.158 976.604 109.571C979.637 113.163 981.706 117.16 982.809 121.574C983.911 125.997 984.465 131.031 984.465 136.686V204.157H947.013V150.551C947.013 145.309 946.631 141.07 945.878 137.825C945.119 134.583 943.772 131.995 941.845 130.061C940.188 128.407 938.327 127.238 936.258 126.542C934.189 125.855 931.978 125.509 929.635 125.509C923.289 125.509 918.425 127.407 915.048 131.2C911.666 134.999 909.983 140.413 909.983 147.448V204.157H872.527V97.9811Z" fill="white"/>
<path d="M1041.36 129.232V204.157H1003.91V129.232H991.494V97.9798H1003.91V66.1073H1041.36V97.9798H1062.67V129.232H1041.36Z" fill="white"/>
<path d="M1120.86 124.546H1129.15C1149.56 124.546 1159.76 116.694 1159.76 100.982C1159.76 85.7858 1149.24 78.1875 1128.2 78.1875H1120.86V124.546ZM1120.86 145.15V204.958H1098.63V57.6763H1123.81C1136.14 57.6763 1145.46 58.5349 1151.75 60.2522C1158.11 61.9665 1163.7 65.2143 1168.54 69.9836C1176.99 78.2508 1181.22 88.6781 1181.22 101.269C1181.22 114.754 1176.7 125.438 1167.68 133.322C1158.65 141.207 1146.48 145.15 1131.16 145.15H1120.86Z" fill="white"/>
<path d="M1217.15 57.674V184.068H1260.44V204.958H1194.92V57.674H1217.15Z" fill="white"/>
<path d="M1290.07 57.675V146.387C1290.07 159.044 1292.13 168.3 1296.26 174.147C1302.43 182.607 1311.1 186.837 1322.3 186.837C1333.55 186.837 1342.26 182.607 1348.42 174.147C1352.56 168.489 1354.62 159.234 1354.62 146.387V57.675H1376.84V152.494C1376.84 168.013 1372.01 180.794 1362.35 190.841C1351.48 202.037 1338.12 207.632 1322.3 207.632C1306.47 207.632 1293.14 202.037 1282.34 190.841C1272.68 180.794 1267.84 168.013 1267.84 152.494V57.675H1290.07Z" fill="white"/>
<path d="M1486.2 79.6152L1468.18 90.2987C1464.81 84.4508 1461.6 80.6306 1458.54 78.853C1455.37 76.8164 1451.26 75.801 1446.24 75.801C1440.08 75.801 1434.96 77.5485 1430.89 81.0463C1426.82 84.4779 1424.79 88.8074 1424.79 94.0195C1424.79 101.208 1430.13 106.993 1440.81 111.379L1455.5 117.39C1467.44 122.222 1476.19 128.122 1481.72 135.087C1487.25 142.05 1490.02 150.585 1490.02 160.696C1490.02 174.245 1485.5 185.437 1476.47 194.274C1467.38 203.177 1456.1 207.633 1442.62 207.633C1429.84 207.633 1419.29 203.849 1410.96 196.278C1402.76 188.709 1397.64 178.056 1395.61 164.324L1418.11 159.361C1419.13 168.011 1420.91 173.989 1423.45 177.294C1428.03 183.654 1434.71 186.835 1443.48 186.835C1450.41 186.835 1456.16 184.512 1460.74 179.87C1465.32 175.23 1467.6 169.346 1467.6 162.224C1467.6 159.361 1467.21 156.737 1466.41 154.354C1465.62 151.971 1464.38 149.778 1462.69 147.774C1461.01 145.771 1458.83 143.894 1456.16 142.14C1453.49 140.393 1450.31 138.727 1446.62 137.136L1432.42 131.222C1412.26 122.702 1402.19 110.238 1402.19 93.8297C1402.19 82.7606 1406.42 73.5113 1414.87 66.0666C1423.32 58.5647 1433.84 54.8138 1446.43 54.8138C1463.41 54.8138 1476.67 63.0809 1486.2 79.6152Z" fill="white"/>
</svg>
