<svg width="24" height="24" viewBox="0 0 24 24" fill="none" xmlns="http://www.w3.org/2000/svg">
<path d="M5.40003 20.7868V20.8C5.40003 21.0918 5.51592 21.3715 5.72221 21.5778C5.9285 21.7841 6.20829 21.9 6.50003 21.9H9.43336V21.5333C9.43336 21.2416 9.31747 20.9618 9.11118 20.7555C8.90489 20.5492 8.6251 20.4333 8.33336 20.4333C8.64053 20.2287 8.8979 19.9577 9.08655 19.6404C9.2752 19.3232 9.39033 18.9676 9.42346 18.6V16.4092H5.00293L5.40003 20.7868Z" fill="#785349"/>
<path d="M23 14.3614C23.0001 14.4945 22.9605 14.6247 22.8863 14.7354L22.6737 15.058C22.5485 15.2457 22.3789 15.3994 22.18 15.5056C21.981 15.6118 21.7589 15.6672 21.5333 15.6667H18.9667C18.5079 15.6678 18.055 15.7692 17.6395 15.9636C17.2241 16.158 16.8561 16.4409 16.5613 16.7924L16.136 17.302C15.8328 17.6666 15.6667 18.1258 15.6667 18.6V20.4334L16.7667 20.8C16.9874 20.9101 17.173 21.0797 17.3025 21.2896C17.4321 21.4995 17.5005 21.7414 17.5 21.988V22.2667H15.9673C16.0117 22.3838 16.0341 22.5081 16.0333 22.6334V23H13.4667C13.1462 22.9995 12.834 22.8983 12.5742 22.7108C12.3143 22.5233 12.1199 22.259 12.0183 21.955L11.7287 21.0897C11.4341 20.1972 11.2782 19.2648 11.2667 18.325C10.6724 18.5065 10.0546 18.5991 9.43332 18.6C8.5361 18.6007 7.65235 18.3817 6.85932 17.962C6.86299 18.028 6.86665 18.094 6.86665 18.16C6.86584 18.7325 6.70598 19.2934 6.40492 19.7803C6.10385 20.2672 5.67342 20.6609 5.16165 20.9174L3.93332 21.5334L4.33665 21.669C4.53939 21.7362 4.71582 21.8655 4.84088 22.0386C4.96594 22.2117 5.03328 22.4198 5.03332 22.6334V23H3.56665C3.33988 22.9999 3.11641 22.9456 2.91487 22.8416C2.71333 22.7377 2.53954 22.5871 2.40799 22.4024L1.18699 20.6937C1.04899 20.5015 0.983901 20.2664 1.00338 20.0306C1.02287 19.7948 1.12565 19.5736 1.29332 19.4067L2.46665 18.2334V16.7887C2.46626 16.2869 2.40469 15.787 2.28332 15.3C2.16195 14.8131 2.10038 14.3132 2.09999 13.8114C2.09759 13.1686 2.25074 12.5347 2.54635 11.9639C2.84197 11.3931 3.27128 10.9023 3.79765 10.5334L7.45699 9.81836C8.75356 9.88168 10.0354 10.1223 11.2667 10.5334C11.9951 10.2911 12.7577 10.1673 13.5253 10.1667C14.2102 10.1657 14.8858 10.3252 15.498 10.6324L16.0333 10.9L17.8923 11.56H17.896C17.9322 11.4068 18.011 11.267 18.1233 11.1567C18.2256 11.0543 18.3516 10.9788 18.4902 10.9371C18.6288 10.8955 18.7756 10.8889 18.9174 10.918C19.0591 10.947 19.1915 11.0109 19.3025 11.1038C19.4135 11.1966 19.4997 11.3156 19.5533 11.45L19.876 12.2604L20.4003 12.4437C20.8933 12.6299 21.2979 12.9952 21.5333 13.4667L22.4867 13.705C22.633 13.7417 22.763 13.8262 22.856 13.9451C22.9489 14.064 22.9996 14.2104 23 14.3614V14.3614Z" fill="#785349"/>
<path d="M22.6733 15.0581L22.8859 14.7354C22.9601 14.6248 22.9997 14.4946 22.9996 14.3614C22.9992 14.2105 22.9486 14.064 22.8556 13.9451C22.7626 13.8262 22.6326 13.7418 22.4863 13.7051L21.5329 13.4667C21.2975 12.9953 20.8929 12.63 20.3999 12.4437L19.8756 12.2604L19.5529 11.4501C19.4993 11.3156 19.4131 11.1967 19.3021 11.1038C19.1911 11.0109 19.0588 10.9471 18.917 10.918C18.7752 10.8889 18.6284 10.8955 18.4898 10.9372C18.3512 10.9788 18.2252 11.0543 18.1229 11.1567C18.0106 11.267 17.9318 11.4069 17.8956 11.5601H17.8919L16.0329 10.9001L15.4976 10.6324C15.4829 10.6251 15.4672 10.6199 15.4521 10.6126C15.239 10.5692 15.0227 10.5434 14.8053 10.5356C13.9774 10.5153 13.1521 10.6387 12.3663 10.9001L12.3296 10.888C10.4687 10.2911 8.48562 10.1826 6.57073 10.573L5.89606 10.705C5.4318 10.7882 4.99163 10.9728 4.60696 11.2457C4.2223 11.5187 3.90262 11.8731 3.67076 12.2839L3.66196 12.3007C3.35816 12.8799 3.1995 13.5241 3.1996 14.1781C3.19983 14.653 3.25508 15.1264 3.36423 15.5886C3.49117 16.0973 3.55896 16.619 3.56626 17.1433V18.6001L2.39293 19.7734C2.22526 19.9403 2.12248 20.1615 2.10299 20.3973C2.08351 20.6331 2.1486 20.8682 2.2866 21.0604L3.50943 22.7716C3.57046 22.8551 3.64042 22.9317 3.71806 23.0001H5.03293V22.6334C5.03289 22.4198 4.96555 22.2117 4.84049 22.0386C4.71543 21.8655 4.539 21.7362 4.33626 21.6691L3.93293 21.5334L5.16126 20.9174C5.67303 20.6609 6.10346 20.2672 6.40453 19.7804C6.70559 19.2935 6.86545 18.7325 6.86626 18.1601C6.86626 18.0941 6.8626 18.0281 6.85893 17.9621C7.65196 18.3817 8.53571 18.6008 9.43293 18.6001C10.0542 18.5992 10.672 18.5065 11.2663 18.3251C11.2779 19.2648 11.4337 20.1972 11.7283 21.0897L12.0179 21.9551C12.1195 22.259 12.3139 22.5234 12.5738 22.7109C12.8336 22.8984 13.1458 22.9995 13.4663 23.0001H16.0329V22.6334C16.0337 22.5081 16.0113 22.3838 15.9669 22.2667H17.4996V21.9881C17.5001 21.7414 17.4317 21.4995 17.3021 21.2896C17.1726 21.0797 16.987 20.9102 16.7663 20.8001L15.6663 20.4334V18.6001C15.6663 18.1259 15.8324 17.6666 16.1356 17.3021L16.5609 16.7924C16.8557 16.4409 17.2237 16.1581 17.6391 15.9636C18.0546 15.7692 18.5075 15.6679 18.9663 15.6667H21.5329C21.7585 15.6672 21.9806 15.6118 22.1796 15.5057C22.3785 15.3995 22.5481 15.2457 22.6733 15.0581V15.0581Z" fill="#916658"/>
<path d="M7.6 1V6.5H9.8L5.4 12.7333L1 6.5H3.2V1H7.6Z" fill="#E73844"/>
<path d="M13.1 1V3.93333H14.5667L12 7.23333L9.43335 3.93333H10.9V1H13.1Z" fill="#E73844"/>
<path d="M6.05981 15.4467L5.47314 15.8867L5.95678 16.5313C6.27361 16.9529 6.46009 17.458 6.49321 17.9844L7.22654 17.9393C7.18442 17.27 6.94706 16.6278 6.54381 16.092L6.05981 15.4467Z" fill="#785349"/>
<path d="M17.3486 14.6299L17.0263 14.3076L16.5078 14.8261L16.8301 15.1484C17.1404 15.4586 17.5149 15.697 17.9272 15.8469C18.261 15.7282 18.6127 15.6673 18.967 15.6669V15.3002C18.6664 15.3011 18.3685 15.2423 18.0907 15.1272C17.8128 15.0121 17.5606 14.8431 17.3486 14.6299V14.6299Z" fill="#785349"/>
<path d="M17.5 11.7765C17.4998 11.9813 17.5471 12.1834 17.6382 12.3668L17.9059 12.8981L18.5608 12.5681L18.2935 12.0368C18.2537 11.9558 18.2331 11.8668 18.2333 11.7765C18.2338 11.735 18.2396 11.6937 18.2506 11.6537L17.896 11.5602H17.8923L17.881 11.5561L17.5414 11.4663C17.5144 11.5675 17.5004 11.6718 17.5 11.7765V11.7765Z" fill="#785349"/>
<path d="M14.57 21.1666C14.5803 20.5682 14.6151 19.9669 14.6749 19.3733L14.9315 16.8033L14.2019 16.73L13.9452 19.3003C13.8719 20.0395 13.8352 20.7908 13.8352 21.5333C13.8352 21.6306 13.8738 21.7238 13.9426 21.7926C14.0114 21.8613 14.1046 21.9 14.2019 21.9H14.9352C15.0315 21.8998 15.1269 21.9187 15.2159 21.9556C15.3048 21.9926 15.3855 22.0468 15.4533 22.1152C15.5289 22.1894 15.5862 22.2801 15.6205 22.3803L16.3172 22.153C16.2469 21.943 16.1284 21.7525 15.971 21.5967C15.8352 21.4599 15.6735 21.3514 15.4954 21.2775C15.3172 21.2037 15.1262 21.166 14.9334 21.1666H14.57Z" fill="#785349"/>
<path d="M11.6337 15.6666H10.9004V18.325H11.2671H11.6337V15.6666Z" fill="#785349"/>
<path d="M12.2934 12.1136L12.3788 12.4553L13.0902 12.2779L13.0047 11.9358C12.9229 11.6078 12.7744 11.3003 12.5686 11.0322C12.3628 10.7641 12.104 10.5412 11.8083 10.3774C11.6257 10.4227 11.4452 10.4746 11.2667 10.5333L11.1509 10.8812C11.43 10.9732 11.6813 11.1346 11.8811 11.3501C12.0809 11.5656 12.2228 11.8283 12.2934 12.1136Z" fill="#785349"/>
<path d="M6.99395 10.4754L9.80005 6.5H7.60005V1H4.30005V7.23333C4.30047 8.00309 4.56997 8.74848 5.06191 9.34053C5.55385 9.93258 6.23729 10.334 6.99395 10.4754V10.4754Z" fill="#FF4D55"/>
<path d="M13.1 1H11.6333V4.66667C11.6338 5.0157 11.759 5.35307 11.9864 5.61786C12.2138 5.88265 12.5284 6.05741 12.8734 6.1106L14.5666 3.93333H13.1V1Z" fill="#FF4D55"/>
</svg>
