<svg width="24" height="24" viewBox="0 0 24 24" fill="none" xmlns="http://www.w3.org/2000/svg">
<path d="M16.2608 19.1569L17.5896 21.0173V21.7387C17.5896 21.93 17.6656 22.1135 17.8009 22.2488C17.9362 22.3841 18.1197 22.4601 18.311 22.4601H19.7538V22.1845C19.7538 21.9422 19.6863 21.7046 19.5589 21.4985C19.4315 21.2923 19.2491 21.1257 19.0324 21.0173L16.698 16.0888L13.9668 15.5012L16.2608 19.1569Z" fill="#785349"/>
<path d="M4.69636 14.3871C4.32653 14.7251 4.03117 15.1364 3.82909 15.5948C3.62701 16.0532 3.52265 16.5487 3.52266 17.0497V17.7711C3.30589 17.8795 3.12359 18.0461 2.99618 18.2523C2.86876 18.4584 2.80127 18.696 2.80127 18.9383V20.6123C2.80128 21.1209 2.86366 21.6276 2.98703 22.1211C3.03705 22.3209 3.15242 22.4984 3.31482 22.6251C3.47722 22.7519 3.67733 22.8208 3.88335 22.8208H5.32613V22.4601C5.32614 22.2383 5.27136 22.0198 5.16666 21.8242C5.06196 21.6285 4.91057 21.4618 4.72593 21.3387L4.24405 21.0174V19.2139C5.16865 19.2139 6.07085 18.9293 6.82806 18.3987L4.69636 14.3871Z" fill="#785349"/>
<path d="M20.8322 13.2624C20.7997 13.8784 20.5401 14.4605 20.1036 14.8964L19.393 15.6069L19.1874 16.4365C19.1391 16.6285 19.0223 16.7961 18.859 16.9079C18.6957 17.0197 18.4972 17.068 18.3008 17.0436C18.1044 17.0192 17.9237 16.9239 17.7927 16.7755C17.6617 16.6272 17.5894 16.4361 17.5895 16.2382C17.5898 15.9486 17.5422 15.661 17.4489 15.3869C16.9966 15.9599 16.3739 16.3743 15.6706 16.57C15.6887 16.588 15.7031 16.6061 15.7211 16.6241L16.5616 17.4645C16.6791 17.5819 16.767 17.7255 16.818 17.8836C16.869 18.0416 16.8816 18.2096 16.8548 18.3735C16.828 18.5374 16.7626 18.6925 16.6639 18.8261C16.5653 18.9597 16.4362 19.0679 16.2874 19.1417L14.6282 19.9749C14.2032 20.1853 13.7355 20.2951 13.2612 20.296C12.9742 20.296 12.699 20.182 12.4961 19.979C12.2931 19.7761 12.1791 19.5009 12.1791 19.2139V18.4925H14.5561C14.6567 18.4922 14.755 18.4622 14.8385 18.4063C14.9221 18.3503 14.9873 18.2708 15.0258 18.1779C15.0644 18.085 15.0746 17.9828 15.0552 17.8841C15.0358 17.7854 14.9876 17.6946 14.9168 17.6232L14.0295 16.7359L14.0259 16.7395C13.5911 16.9429 13.1172 17.0487 12.6372 17.0497C12.3334 17.0502 12.0312 17.0927 11.7391 17.176L10.3684 17.5655C10.3323 17.9714 10.1548 18.3518 9.86707 18.6404C9.79966 18.7076 9.74616 18.7874 9.70964 18.8753C9.67313 18.9632 9.65431 19.0574 9.65426 19.1526V19.4159C9.6537 19.9901 9.8245 20.5515 10.1448 21.0282C10.294 21.255 10.515 21.4252 10.7724 21.5115C10.9718 21.5775 11.1454 21.7047 11.2684 21.875C11.3915 22.0453 11.4577 22.25 11.4577 22.4601V22.8208H10.015C9.79819 22.8216 9.58556 22.7615 9.40127 22.6473C9.21698 22.5332 9.06844 22.3696 8.97255 22.1752L8.57218 21.378L8.25116 20.8947C7.99069 20.5037 7.85142 20.0444 7.85079 19.5746V18.8532L6.64607 18.3157C5.97944 18.02 5.42429 17.5196 5.06104 16.8872C4.69778 16.2548 4.54529 15.5232 4.62565 14.7983C4.70601 14.0734 5.01506 13.393 5.50801 12.8555C6.00096 12.318 6.65223 11.9514 7.36746 11.8088L8.21149 11.6393L12.5398 10.027C13.4631 9.62363 14.4665 9.437 15.4731 9.48139C16.4797 9.52578 17.4628 9.80002 18.347 10.2831L19.5301 10.9287C19.9161 11.1374 20.2397 11.4448 20.4679 11.8196L20.8322 13.2624Z" fill="#916658"/>
<path d="M17.449 15.387C17.5423 15.6611 17.5899 15.9487 17.5896 16.2382C17.5895 16.4361 17.6618 16.6273 17.7928 16.7756C17.9238 16.924 18.1045 17.0193 18.3009 17.0437C18.4973 17.0681 18.6958 17.0198 18.8591 16.908C19.0224 16.7962 19.1392 16.6285 19.1875 16.4366L19.3931 15.607L20.1037 14.8965C20.5402 14.4606 20.7998 13.8785 20.8323 13.2625L20.468 11.8197C20.2398 11.4449 19.9162 11.1375 19.5302 10.9288L18.5401 10.3878C17.7078 10.0236 16.8092 9.83557 15.9007 9.83557C14.9922 9.83557 14.0936 10.0236 13.2613 10.3878L8.93298 12.0001L8.08895 12.1696C7.41591 12.3038 6.7985 12.6365 6.31635 13.1249C5.83419 13.6133 5.50941 14.2349 5.38387 14.9096C5.25834 15.5843 5.33782 16.2812 5.61206 16.9103C5.8863 17.5394 6.34272 18.0719 6.92247 18.4392L7.85089 18.8533V19.5747C7.85152 20.0445 7.99079 20.5037 8.25126 20.8948L8.57228 21.3781L8.97265 22.1753C9.06854 22.3697 9.21709 22.5333 9.40137 22.6474C9.58566 22.7615 9.79829 22.8217 10.0151 22.8209H11.4578V22.4602C11.4578 22.2501 11.3916 22.0454 11.2685 21.8751C11.1455 21.7048 10.9719 21.5776 10.7725 21.5116C10.5151 21.4253 10.2941 21.2551 10.1449 21.0283C9.8246 20.5516 9.6538 19.9902 9.65436 19.416V19.1527C9.65441 19.0575 9.67323 18.9632 9.70974 18.8754C9.74626 18.7875 9.79976 18.7076 9.86717 18.6405C10.1549 18.3519 10.3324 17.9715 10.3685 17.5656L11.7392 17.176C12.0313 17.0927 12.3335 17.0503 12.6373 17.0498C13.1173 17.0488 13.5912 16.943 14.026 16.7396L14.0296 16.736L14.9169 17.6233C14.9877 17.6947 15.0359 17.7855 15.0553 17.8842C15.0747 17.9829 15.0645 18.0851 15.0259 18.178C14.9874 18.2709 14.9222 18.3504 14.8386 18.4063C14.7551 18.4623 14.6568 18.4923 14.5562 18.4926H12.1792V19.214C12.1792 19.501 12.2932 19.7762 12.4962 19.9791C12.6991 20.182 12.9743 20.296 13.2613 20.296C13.7356 20.2952 14.2033 20.1854 14.6283 19.975L16.2875 19.1418C16.4363 19.068 16.5654 18.9598 16.664 18.8262C16.7627 18.6926 16.8281 18.5375 16.8549 18.3735C16.8817 18.2096 16.8691 18.0417 16.8181 17.8837C16.7671 17.7256 16.6792 17.5819 16.5617 17.4646L15.7212 16.6242C15.7032 16.6061 15.6888 16.5881 15.6707 16.5701C16.374 16.3744 16.9967 15.96 17.449 15.387V15.387Z" fill="#A37765"/>
<path d="M19.3931 12.6615C19.3933 12.4767 19.459 12.298 19.5785 12.1571C19.698 12.0162 19.8637 11.9222 20.0459 11.8918C21.0283 11.7279 21.935 11.2614 22.6393 10.5572L23 10.1965L22.9877 10.2708C22.8798 10.9182 22.6202 11.5308 22.2303 12.0586C21.8404 12.5865 21.3312 13.0147 20.7442 13.3082C20.5673 13.3967 20.3722 13.4427 20.1743 13.4428C19.9671 13.4428 19.7684 13.3605 19.6219 13.214C19.4754 13.0674 19.3931 12.8687 19.3931 12.6615V12.6615Z" fill="#4C4C4C"/>
<path d="M20.8155 13.4427C21.5581 13.4385 22.2954 13.3168 22.9999 13.082C22.6971 13.5867 22.2787 14.0122 21.7792 14.3235C21.2797 14.6348 20.7134 14.823 20.127 14.8725L20.8155 13.4427Z" fill="#383838"/>
<path d="M17.2287 13.1831V12.7214H16.5073V13.1831C16.5093 13.885 16.6723 14.577 16.9838 15.2059C17.0324 15.301 17.0735 15.3998 17.1068 15.5013L17.7921 15.2723C17.7478 15.1378 17.6932 15.007 17.6287 14.8809C17.3676 14.3529 17.2307 13.7722 17.2287 13.1831V13.1831Z" fill="#916658"/>
<path d="M10.1232 15.9254L9.18898 14.9912L8.67896 15.5012L9.61315 16.4354C9.87017 16.6949 10.0145 17.0452 10.015 17.4104C10.015 17.4526 10.0117 17.498 10.0085 17.5402L10.3692 17.5655L10.7346 17.4616C10.7346 17.4443 10.7367 17.4255 10.7367 17.4104C10.7355 16.854 10.5151 16.3204 10.1232 15.9254V15.9254Z" fill="#916658"/>
<path d="M15.4449 14.9257L15.2955 15.1529C15.1448 15.3768 15.0644 15.6405 15.0647 15.9104C15.0646 16.2392 15.1826 16.557 15.3973 16.806L15.9437 16.3349C15.8418 16.2168 15.7859 16.066 15.7861 15.91C15.7861 15.7825 15.8246 15.658 15.8965 15.5526L16.0465 15.3239C16.3474 14.874 16.5079 14.3448 16.5075 13.8036H15.7861C15.7862 14.2032 15.6674 14.5938 15.4449 14.9257V14.9257Z" fill="#916658"/>
<path d="M13.6604 15.857C13.5478 15.7454 13.4247 15.6447 13.2929 15.5566C13.0614 15.402 12.8716 15.1929 12.7402 14.9475C12.6088 14.7021 12.54 14.4282 12.5397 14.1499V13.8036H11.8184V14.1499C11.8184 14.5463 11.9161 14.9366 12.1029 15.2862C12.2897 15.6359 12.5598 15.9342 12.8893 16.1546C12.9829 16.2169 13.0703 16.2881 13.1504 16.367L13.6648 16.8814C13.7877 16.8412 13.9081 16.7939 14.0254 16.7396L14.2841 16.481L13.6604 15.857Z" fill="#916658"/>
<path d="M4.72583 21.3387L4.24395 21.0173V19.2138C4.86864 19.2129 5.48629 19.0818 6.05752 18.8289C5.54643 18.5519 5.0993 18.1705 4.74511 17.7095C4.39092 17.2485 4.1376 16.7182 4.00156 16.153C3.92456 16.4457 3.88481 16.747 3.88325 17.0496V17.771C3.66649 17.8794 3.48418 18.046 3.35677 18.2522C3.22936 18.4583 3.16187 18.6959 3.16187 18.9382V20.6122C3.16187 21.1208 3.22426 21.6276 3.34762 22.121C3.39764 22.3209 3.51302 22.4983 3.67541 22.6251C3.83781 22.7518 4.03792 22.8207 4.24395 22.8207H5.32603V22.4601C5.32607 22.2382 5.27131 22.0197 5.1666 21.8241C5.0619 21.6284 4.91049 21.4617 4.72583 21.3387V21.3387Z" fill="#916658"/>
<path d="M18.6717 13.4427L18.9433 12.8995C19.0018 12.7822 19.0323 12.653 19.0324 12.5219C19.0324 12.365 18.9888 12.2113 18.9063 12.0779C18.8239 11.9445 18.7059 11.8367 18.5656 11.7666L17.5896 11.2786V11.9148C17.5895 12.4452 17.713 12.9683 17.9503 13.4427" fill="#916658"/>
<path d="M18.9964 13.6041L18.3508 13.2816L18.6224 12.7384C18.6559 12.6712 18.6735 12.5971 18.6736 12.522C18.674 12.4321 18.6491 12.3439 18.6019 12.2674C18.5546 12.1909 18.4869 12.1291 18.4063 12.0892L17.9504 11.8623V11.915C17.9517 12.3895 18.0628 12.8572 18.275 13.2816L17.6294 13.6041C17.3674 13.0795 17.2304 12.5014 17.229 11.915V11.2787C17.229 11.2172 17.2447 11.1567 17.2746 11.103C17.3045 11.0493 17.3477 11.0041 17.4 10.9718C17.4523 10.9394 17.512 10.921 17.5734 10.9182C17.6348 10.9154 17.6959 10.9284 17.7509 10.9559L18.727 11.4439C18.8685 11.5146 18.9948 11.6126 19.0984 11.7321C19.2021 11.8517 19.2813 11.9905 19.3313 12.1406C19.3814 12.2907 19.4013 12.4492 19.3901 12.6071C19.3789 12.7649 19.3366 12.919 19.2658 13.0605L18.9964 13.6041Z" fill="#785349"/>
<path d="M8.21153 12.7214V7.311H6.04736L10.3757 1.1792L14.704 7.311H12.5399V12.7214H8.21153Z" fill="#178A30"/>
<path d="M14.7039 7.311L10.3755 1.1792L9.29346 2.71215V8.39308C9.29346 9.25404 9.63547 10.0797 10.2443 10.6885C10.8531 11.2973 11.6787 11.6393 12.5397 11.6393V7.311H14.7039Z" fill="#35B350"/>
<path d="M5.62032 14.8857C4.32352 14.8867 3.05561 14.5027 1.97731 13.7823C1.87387 13.7135 1.79533 13.6131 1.75331 13.4962C1.7113 13.3792 1.70802 13.2519 1.74398 13.1329C1.77993 13.014 1.85321 12.9097 1.95298 12.8357C2.05274 12.7616 2.1737 12.7215 2.29796 12.7215C2.81882 12.7211 3.3343 12.8269 3.81288 13.0324L5.02301 13.5511C5.12539 13.3562 5.24617 13.1715 5.3837 12.9996C5.39993 12.9798 5.41977 12.9635 5.43636 12.9437L4.09963 12.3695C3.53049 12.125 2.91741 11.9993 2.29796 12.0001C2.01934 12.0006 1.74824 12.0906 1.52462 12.2568C1.301 12.423 1.13668 12.6567 1.05588 12.9233C0.975078 13.19 0.982063 13.4755 1.07581 13.7379C1.16955 14.0003 1.3451 14.2256 1.57658 14.3807C2.77329 15.1809 4.1807 15.6078 5.62032 15.6071H6.40807V14.8857H5.62032Z" fill="#4C4C4C"/>
<path d="M2.80093 12.7214V9.83585H1.35815L3.88301 6.5896L6.40787 9.83585H4.96509V12.7214H2.80093Z" fill="#178A30"/>
<path d="M3.52246 7.05345V10.5572C3.52246 10.9399 3.67447 11.3069 3.94504 11.5774C4.21561 11.848 4.58259 12 4.96524 12V9.83585H6.40801L3.88315 6.5896L3.52246 7.05345Z" fill="#35B350"/>
</svg>
