<svg width="28" height="28" viewBox="0 0 28 28" fill="none" xmlns="http://www.w3.org/2000/svg">
<path fill-rule="evenodd" clip-rule="evenodd" d="M22.7048 6.70711C23.0954 6.31658 23.0954 5.68342 22.7048 5.29289C22.3143 4.90237 21.6811 4.90237 21.2906 5.29289L13.9989 12.5846L6.70711 5.29289C6.31658 4.90237 5.68342 4.90237 5.29289 5.29289C4.90237 5.68342 4.90237 6.31658 5.29289 6.70711L12.5846 13.9989L5.29289 21.2906C4.90237 21.6811 4.90237 22.3143 5.29289 22.7048C5.68342 23.0954 6.31658 23.0954 6.70711 22.7048L13.9989 15.4131L21.2906 22.7048C21.6811 23.0954 22.3143 23.0954 22.7048 22.7048C23.0954 22.3143 23.0954 21.6811 22.7048 21.2906L15.4131 13.9989L22.7048 6.70711Z" fill="#3F3F3F"/>
</svg>
