<svg width="24" height="24" viewBox="0 0 24 24" fill="none" xmlns="http://www.w3.org/2000/svg">
<path d="M9.47909 1H2.60411C1.71956 1 1 1.71956 1 2.60411V6.7291C1 7.61381 1.71956 8.33337 2.60411 8.33337H9.47909C10.3638 8.33337 11.0834 7.61381 11.0834 6.7291V2.60411C11.0834 1.71956 10.3638 1 9.47909 1Z" fill="#34B350"/>
<path d="M9.47909 10.1665H2.60411C1.71956 10.1665 1 10.8861 1 11.7708V21.3958C1 22.2803 1.71956 22.9999 2.60411 22.9999H9.47909C10.3638 22.9999 11.0834 22.2803 11.0834 21.3958V11.7708C11.0834 10.8861 10.3638 10.1665 9.47909 10.1665Z" fill="#34B350"/>
<path d="M21.3959 15.6665H14.5209C13.6362 15.6665 12.9166 16.3861 12.9166 17.2708V21.3958C12.9166 22.2803 13.6362 22.9999 14.5209 22.9999H21.3959C22.2804 22.9999 23 22.2803 23 21.3958V17.2708C23 16.3861 22.2804 15.6665 21.3959 15.6665Z" fill="#34B350"/>
<path d="M21.3959 1H14.5209C13.6362 1 12.9166 1.71956 12.9166 2.60411V12.2291C12.9166 13.1138 13.6362 13.8334 14.5209 13.8334H21.3959C22.2804 13.8334 23 13.1138 23 12.2291V2.60411C23 1.71956 22.2804 1 21.3959 1Z" fill="#34B350"/>
</svg>
