<svg width="30" height="30" viewBox="0 0 30 30" fill="none" xmlns="http://www.w3.org/2000/svg">
<rect width="30" height="30" rx="5" fill="white"/>
<path d="M14.0001 23C18.9708 23 23.0003 18.9706 23.0003 14C23.0003 9.02944 18.9708 5 14.0001 5C9.02949 5 5 9.02944 5 14C5 18.9706 9.02949 23 14.0001 23Z" stroke="#3F3F3F" stroke-width="1.2" stroke-linecap="round" stroke-linejoin="round"/>
<path d="M14 20C17.3137 20 20 17.3137 20 14C20 10.6863 17.3137 8 14 8C10.6863 8 8 10.6863 8 14C8 17.3137 10.6863 20 14 20Z" fill="white"/>
<path d="M21 21L25 25" stroke="#3F3F3F" stroke-width="1.2" stroke-linecap="round" stroke-linejoin="round"/>
</svg>
