<svg width="28" height="28" viewBox="0 0 28 28" fill="none" xmlns="http://www.w3.org/2000/svg">
<path d="M22.5 18.526C22.5 18.526 23.6305 15.5834 23.6305 14C23.6305 12.096 23.0659 10.2348 22.0079 8.65182C20.9499 7.06883 19.4463 5.83518 17.6871 5.10691C16.5124 4.62064 15.2591 4.37428 14 4.375V9V14" fill="#00C802"/>
<path d="M14 8.75V14" stroke="white" stroke-linecap="round" stroke-linejoin="round"/>
<path d="M18.55 16.625L14 14" stroke="white" stroke-linecap="round" stroke-linejoin="round"/>
<path d="M7.85315 10.9043H3.47815V6.5293" stroke="white" stroke-linecap="round" stroke-linejoin="round"/>
<path d="M7.19687 20.8031C8.54264 22.15 10.2576 23.0675 12.1249 23.4395C13.9922 23.8115 15.9279 23.6214 17.6871 22.8931C19.4463 22.1648 20.9499 20.9312 22.0079 19.3482C23.0659 17.7652 23.6305 15.904 23.6305 14C23.6305 12.096 23.0659 10.2348 22.0079 8.65182C20.9499 7.06883 19.4463 5.83517 17.6871 5.10691C15.9279 4.37865 13.9922 4.1885 12.1249 4.56052C10.2576 4.93254 8.54264 5.85001 7.19687 7.19688L3.47812 10.9047" stroke="white" stroke-linecap="round" stroke-linejoin="round"/>
</svg>
