<svg width="28" height="28" viewBox="0 0 28 28" fill="none" xmlns="http://www.w3.org/2000/svg">
<path d="M22.5 18.526C22.5 18.526 23.6305 15.5834 23.6305 14C23.6305 12.096 23.0659 10.2348 22.0079 8.65182C20.9499 7.06883 19.4463 5.83518 17.6871 5.10691C16.5124 4.62064 15.2591 4.37428 14 4.375V9V14" fill="#CCECD3"/>
<path d="M14 8.75V14" stroke="#3F3F3F" stroke-linecap="round" stroke-linejoin="round"/>
<path d="M18.55 16.625L14 14" stroke="#3F3F3F" stroke-linecap="round" stroke-linejoin="round"/>
<path d="M7.85303 10.9043H3.47803V6.5293" stroke="#3F3F3F" stroke-linecap="round" stroke-linejoin="round"/>
<path d="M7.19678 20.8031C8.54255 22.15 10.2575 23.0675 12.1248 23.4395C13.9921 23.8115 15.9278 23.6214 17.687 22.8931C19.4462 22.1648 20.9499 20.9312 22.0078 19.3482C23.0658 17.7652 23.6305 15.904 23.6305 14C23.6305 12.096 23.0658 10.2348 22.0078 8.65182C20.9499 7.06883 19.4462 5.83517 17.687 5.10691C15.9278 4.37865 13.9921 4.1885 12.1248 4.56052C10.2575 4.93254 8.54255 5.85001 7.19678 7.19688L3.47803 10.9047" stroke="#3F3F3F" stroke-linecap="round" stroke-linejoin="round"/>
</svg>
