<svg width="28" height="28" viewBox="0 0 28 28" fill="none" xmlns="http://www.w3.org/2000/svg">
<defs>
<radialGradient id="paint0_radial_3404_15168" cx="0" cy="0" r="1" gradientUnits="userSpaceOnUse" gradientTransform="translate(11.1373 10.0661) rotate(-29.408) scale(15.6427 12.4087)">
<stop offset="0.2479" stop-color="#FF0000"/>
<stop offset="0.8639" stop-color="#C20000"/>
</radialGradient>
<radialGradient id="paint1_radial_3404_15168" cx="0" cy="0" r="1" gradientUnits="userSpaceOnUse" gradientTransform="translate(11.5242 9.1066) rotate(-29.408) scale(13.4678 10.6835)">
<stop offset="0.2479" stop-color="#FF0000"/>
<stop offset="1" stop-color="#C20000"/>
</radialGradient>
<radialGradient id="paint2_radial_3404_15168" cx="0" cy="0" r="1" gradientUnits="userSpaceOnUse" gradientTransform="translate(11.1373 10.0661) rotate(-29.408) scale(15.6427 12.4087)">
<stop stop-color="white" stop-opacity="0.25"/>
<stop offset="1" stop-color="white" stop-opacity="0"/>
</radialGradient>
<radialGradient id="paint3_radial_3404_15168" cx="0" cy="0" r="1" gradientUnits="userSpaceOnUse" gradientTransform="translate(16.7606 15.3765) rotate(-26.296) scale(11.4186 5.6424)">
<stop stop-color="#BD2719" stop-opacity="0.25"/>
<stop offset="1" stop-color="#BD2719" stop-opacity="0"/>
</radialGradient>
<radialGradient id="paint4_radial_3404_15168" cx="0" cy="0" r="1" gradientUnits="userSpaceOnUse" gradientTransform="translate(8.90986 8.80494) rotate(-21.6908) scale(4.0593 2.52157)">
<stop stop-color="white"/>
<stop offset="1" stop-color="white" stop-opacity="0"/>
</radialGradient>
<radialGradient id="paint5_radial_3404_15168" cx="0" cy="0" r="1" gradientUnits="userSpaceOnUse" gradientTransform="translate(16.8401 8.42412) rotate(-40.7634) scale(3.36087 2.08786)">
<stop stop-color="white"/>
<stop offset="1" stop-color="white" stop-opacity="0"/>
</radialGradient>
<linearGradient id="paint6_linear_3404_15168" x1="16.0599" y1="30.2965" x2="17.9968" y2="4.17964" gradientUnits="userSpaceOnUse">
<stop stop-color="#860805"/>
<stop offset="1" stop-color="#BD2719" stop-opacity="0"/>
</linearGradient>
</defs>
<path d="M18.5142 5C16.6398 5 14.9841 5.94346 13.9969 7.38051C13.0097 5.94346 11.354 5 9.47954 5C6.45548 5 4 7.45548 4 10.4795C4 17.1587 13.9969 23.1631 13.9969 23.1631C13.9969 23.1631 23.9938 17.1587 23.9938 10.4795C23.9938 7.45548 21.5383 5 18.5142 5Z" fill="url(#paint0_radial_3404_15168)"/>
<path opacity="0.5" d="M20.7822 5.48739C23.7813 10.2671 21.0197 16.5402 17.702 18.3209C14.0406 20.289 11.5351 19.3643 6.34924 16.4215C9.30457 20.339 13.9969 23.1569 13.9969 23.1569C13.9969 23.1569 23.9937 17.1525 23.9937 10.4733C23.9937 8.26152 22.6754 6.34962 20.7822 5.48739Z" fill="url(#paint1_radial_3404_15168)"/>
<path opacity="0.5" d="M18.5142 5C16.6398 5 14.9841 5.94346 13.9969 7.38051C13.0097 5.94346 11.354 5 9.47954 5C6.45548 5 4 7.45548 4 10.4795C4 17.1587 13.9969 23.1631 13.9969 23.1631C13.9969 23.1631 23.9938 17.1587 23.9938 10.4795C23.9938 7.45548 21.5383 5 18.5142 5Z" fill="url(#paint2_radial_3404_15168)"/>
<path opacity="0.5" d="M18.5142 5C16.6398 5 14.9841 5.94346 13.9969 7.38051C13.0097 5.94346 11.354 5 9.47954 5C6.45548 5 4 7.45548 4 10.4795C4 17.1587 13.9969 23.1631 13.9969 23.1631C13.9969 23.1631 23.9938 17.1587 23.9938 10.4795C23.9938 7.45548 21.5383 5 18.5142 5Z" fill="url(#paint3_radial_3404_15168)"/>
<path opacity="0.24" d="M12.6287 7.2242C13.1785 8.51755 11.9601 10.2732 9.90451 11.1417C7.8489 12.0102 5.74331 11.6728 5.19349 10.3857C4.64366 9.09861 5.86203 7.33666 7.91763 6.46818C9.97324 5.59971 12.0788 5.93085 12.6287 7.2242Z" fill="url(#paint4_radial_3404_15168)"/>
<path opacity="0.24" d="M19.3263 6.1746C20.1073 7.03683 19.6262 8.74255 18.2579 9.97966C16.8896 11.2168 15.1464 11.5229 14.3654 10.6607C13.5844 9.79847 14.0655 8.09275 15.4338 6.85564C16.8021 5.61852 18.5453 5.31237 19.3263 6.1746Z" fill="url(#paint5_radial_3404_15168)"/>
<path opacity="0.32" d="M18.6142 6.45579C21.3633 7.393 23.9875 11.4542 19.5514 16.5152C16.896 19.5455 13.9969 21.0762 10.3105 20.4764C12.3037 22.1384 14.0031 23.1631 14.0031 23.1631C14.0031 23.1631 24 17.1587 24 10.4795C23.9938 7.45548 21.5383 5 18.5142 5C16.6398 5 14.9841 5.94346 13.9969 7.38051C13.9969 7.38051 16.6023 5.76851 18.6142 6.45579Z" fill="url(#paint6_linear_3404_15168)"/>
</svg>
