<svg width="28" height="28" viewBox="0 0 28 28" fill="none" xmlns="http://www.w3.org/2000/svg">
<path d="M4.375 23.625V5.25H24.5L20.5 11.8125L24.5 18.375H4.375" fill="#CCECD3"/>
<path d="M4.375 23.625V5.25H24.5L20.5 11.8125L24.5 18.375H4.375" stroke="#3F3F3F" stroke-linecap="round" stroke-linejoin="round"/>
<path d="M8.34904 13.5877C8.34904 13.7816 8.20635 13.8785 7.92096 13.8785C7.64033 13.8785 7.50001 13.7816 7.50001 13.5877V9.29089C7.50001 9.09696 7.64033 9 7.92096 9C8.20635 9 8.34904 9.09696 8.34904 9.29089V13.5877Z" fill="#3F3F3F"/>
<path d="M10.6666 12.0605C10.5858 12.0605 10.5216 12.0342 10.474 11.9817C10.4312 11.9251 10.4098 11.8504 10.4098 11.7574C10.4098 11.5514 10.5097 11.4484 10.7094 11.4484H11.4657C11.6417 11.4484 11.7654 11.4059 11.8367 11.3211C11.9128 11.2363 11.9509 11.1433 11.9509 11.0423V10.0484C11.9509 9.94743 11.9128 9.8545 11.8367 9.76966C11.7654 9.68481 11.6417 9.64239 11.4657 9.64239H9.96743V13.5998C9.96743 13.7937 9.82474 13.8907 9.53935 13.8907C9.26347 13.8907 9.12553 13.7937 9.12553 13.5998V9.39392C9.12553 9.24847 9.16834 9.15151 9.25396 9.10302C9.33958 9.05454 9.44422 9.0303 9.56789 9.0303H11.6512C11.7701 9.0303 11.8962 9.05252 12.0294 9.09696C12.1625 9.14141 12.291 9.19797 12.4146 9.26665H12.4075C12.5312 9.34342 12.6263 9.44442 12.6929 9.56967C12.7595 9.69087 12.7928 9.83228 12.7928 9.99389V11.0908C12.7928 11.4181 12.6644 11.6625 12.4075 11.8241C12.2838 11.9009 12.1578 11.9594 12.0294 11.9999C11.9009 12.0403 11.7749 12.0605 11.6512 12.0605H10.6666Z" fill="#3F3F3F"/>
<path d="M16.3513 9.0303C16.475 9.0303 16.6034 9.05252 16.7366 9.09696C16.8698 9.14141 16.9982 9.19797 17.1219 9.26665H17.1147C17.2384 9.34342 17.3335 9.44442 17.4001 9.56967C17.4667 9.69087 17.5 9.83228 17.5 9.99389V12.8725C17.5 13.1998 17.3716 13.4442 17.1147 13.6058C16.9911 13.6826 16.8626 13.7432 16.7295 13.7876C16.601 13.828 16.475 13.8482 16.3513 13.8482H14.7959C14.6723 13.8482 14.5438 13.828 14.4107 13.7876C14.2822 13.7432 14.1562 13.6826 14.0325 13.6058C13.9089 13.525 13.8137 13.426 13.7471 13.3089C13.6805 13.1877 13.6473 13.0422 13.6473 12.8725V9.99389C13.6473 9.83228 13.6805 9.69087 13.7471 9.56967C13.8137 9.44442 13.9089 9.34342 14.0325 9.26665H14.0254C14.1491 9.19797 14.2775 9.14141 14.4107 9.09696C14.5438 9.05252 14.6723 9.0303 14.7959 9.0303H16.3513ZM16.1729 13.2362C16.3489 13.2362 16.4726 13.1937 16.5439 13.1089C16.6153 13.024 16.651 12.9291 16.651 12.8241V10.0484C16.651 9.94743 16.6153 9.8545 16.5439 9.76966C16.4726 9.68481 16.3489 9.64239 16.1729 9.64239H14.9743C14.7983 9.64239 14.6747 9.68481 14.6033 9.76966C14.532 9.8545 14.4963 9.94743 14.4963 10.0484V12.8241C14.4963 12.9291 14.532 13.024 14.6033 13.1089C14.6747 13.1937 14.7983 13.2362 14.9743 13.2362H16.1729Z" fill="#3F3F3F"/>
</svg>
