<svg width="20" height="20" viewBox="0 0 20 20" fill="none" xmlns="http://www.w3.org/2000/svg">
<defs>
<linearGradient id="paint0_linear_1202_8633" x1="10" y1="20" x2="10" y2="0" gradientUnits="userSpaceOnUse">
<stop stop-color="#FD5900"/>
<stop offset="1" stop-color="#FFDE00"/>
</linearGradient>
<linearGradient id="paint1_linear_1202_8633" x1="10" y1="15.3263" x2="10" y2="3.55469" gradientUnits="userSpaceOnUse">
<stop stop-color="#FFE59A"/>
<stop offset="1" stop-color="#FFFFD5"/>
</linearGradient>
</defs>
<path d="M10 20C15.5228 20 20 15.5228 20 10C20 4.47715 15.5228 0 10 0C4.47715 0 0 4.47715 0 10C0 15.5228 4.47715 20 10 20Z" fill="url(#paint0_linear_1202_8633)"/>
<path d="M16.1298 8.00828C16.0609 7.79617 15.8776 7.64156 15.6569 7.60949L12.1111 7.09426L10.5254 3.88129C10.4267 3.68129 10.223 3.55469 10 3.55469C9.77699 3.55469 9.57328 3.68129 9.47457 3.88133L7.88886 7.0943L4.34312 7.60953C4.12242 7.6416 3.93902 7.79621 3.87011 8.00832C3.80121 8.22043 3.85871 8.45328 4.01839 8.60895L6.58414 11.1099L5.97843 14.6413C5.94074 14.8611 6.03109 15.0833 6.21152 15.2144C6.39199 15.3455 6.63117 15.3628 6.82859 15.259L10 13.5917L13.1714 15.259C13.3703 15.3635 13.6094 15.3445 13.7885 15.2144C13.9689 15.0833 14.0593 14.8611 14.0216 14.6413L13.4159 11.1099L15.9816 8.60895C16.1413 8.45324 16.1988 8.22039 16.1298 8.00828V8.00828Z" fill="url(#paint1_linear_1202_8633)"/>
</svg>
