<svg width="26" height="24" viewBox="0 0 26 24" fill="none" xmlns="http://www.w3.org/2000/svg">
<path d="M21.2998 11.3C21.2998 16.8229 16.8227 21.3 11.2998 21.3C5.77696 21.3 1.2998 16.8229 1.2998 11.3C1.2998 5.7772 5.77696 1.30005 11.2998 1.30005C16.8227 1.30005 21.2998 5.7772 21.2998 11.3Z" fill="#35B350"/>
<path fill-rule="evenodd" clip-rule="evenodd" d="M4.57623 3.57218C4.40249 3.72374 4.39556 3.98869 4.55395 4.15624C4.71233 4.32379 4.976 4.33044 5.15027 4.17948C6.8854 2.67645 9.10617 1.84164 11.411 1.83546C13.8552 1.8289 16.21 2.75477 17.9952 4.42432C19.7804 6.09387 20.8617 8.38142 21.0187 10.8206C21.1756 13.2599 20.3964 15.6671 18.8399 17.5517C17.2833 19.4363 15.0667 20.6563 12.6417 20.963C10.2168 21.2698 7.76614 20.6402 5.78935 19.2026C3.81257 17.7649 2.45847 15.6275 2.00308 13.2261C1.57368 10.9616 1.97385 8.62311 3.12197 6.63524C3.23728 6.43559 3.18093 6.17793 2.98648 6.05405C2.79202 5.93017 2.53315 5.98704 2.41715 6.18629C1.15523 8.35377 0.71376 10.9083 1.18276 13.3816C1.67775 15.9919 3.1496 18.3152 5.29828 19.8778C7.44696 21.4404 10.1107 22.1248 12.7465 21.7914C15.3823 21.458 17.7917 20.1318 19.4836 18.0834C21.1755 16.0349 22.0225 13.4184 21.8519 10.767C21.6813 8.1157 20.506 5.62924 18.5655 3.81451C16.625 1.99978 14.0655 0.993399 11.4087 1.00053C8.89137 1.00728 6.46624 1.92346 4.57623 3.57218Z" fill="white"/>
<path d="M18.6701 11.5226C18.6701 15.47 15.47 18.6701 11.5226 18.6701C7.57507 18.6701 4.375 15.47 4.375 11.5226C4.375 7.57507 7.57507 4.375 11.5226 4.375C15.47 4.375 18.6701 7.57507 18.6701 11.5226Z" fill="#0C0C0C" stroke="black" stroke-width="0.75"/>
<path d="M11.9667 10.1488C12.3148 10.1488 12.5673 10.4801 12.4752 10.8158V10.8158C12.4123 11.0447 12.2041 11.2034 11.9667 11.2034H7.52757C7.17951 11.2034 6.92695 10.8721 7.01913 10.5365V10.5365C7.08201 10.3075 7.29015 10.1488 7.52757 10.1488H11.9667ZM10.233 16.6727C10.073 16.6727 9.92116 16.602 9.81815 16.4796L7.13341 13.2894C7.05196 13.1927 7.00691 13.0705 7.00607 12.944L7.0051 12.7977C7.00309 12.4969 7.24641 12.252 7.54725 12.252H8.4142C8.78069 12.252 9.08215 12.1864 9.31859 12.0554C9.55897 11.9203 9.73828 11.7396 9.8565 11.5132C9.97472 11.2828 10.0338 11.0266 10.0338 10.7446C10.0338 10.4388 9.97866 10.1687 9.86832 9.93435C9.75798 9.70001 9.58262 9.5173 9.34224 9.38623C9.10185 9.25516 8.78463 9.18962 8.39056 9.18962H7.54838C7.19191 9.18962 6.93244 8.8515 7.02468 8.50717L7.05341 8.39993C7.11691 8.16288 7.33171 7.99805 7.57711 7.99805H8.39056C9.08806 7.99805 9.66734 8.1033 10.1284 8.31381C10.5895 8.52433 10.9343 8.83016 11.1628 9.23133C11.3953 9.63249 11.5116 10.1171 11.5116 10.685C11.5116 11.1815 11.4269 11.6204 11.2574 12.0017C11.088 12.3791 10.8141 12.6849 10.4358 12.9192C10.2904 13.0078 10.1267 13.0834 9.94473 13.1461C9.53053 13.2888 9.31402 13.8086 9.5953 14.1445L11.6343 16.5794C11.6429 16.5897 11.6475 16.6026 11.6475 16.6159V16.6159C11.6475 16.6473 11.6221 16.6727 11.5907 16.6727H10.233ZM11.9689 7.99805C12.3181 7.99805 12.5708 8.33137 12.4766 8.66761V8.66761C12.4128 8.89524 12.2053 9.05259 11.9689 9.05259H8.53836C8.1903 9.05259 7.93773 8.7213 8.02992 8.38567V8.38567C8.0928 8.15673 8.30094 7.99805 8.53836 7.99805H11.9689Z" fill="white"/>
<path d="M1.03797 2.45294C1.01053 2.29731 1.11445 2.1489 1.27008 2.12145V2.12145C1.42571 2.09401 1.57412 2.19793 1.60156 2.35356L1.94938 4.32614C1.97682 4.48177 1.8729 4.63018 1.71727 4.65762V4.65762C1.56164 4.68506 1.41323 4.58114 1.38579 4.42551L1.03797 2.45294Z" fill="black"/>
<path d="M0.555234 3.84655C0.399602 3.87399 0.251191 3.77008 0.223749 3.61444V3.61444C0.196307 3.45881 0.300225 3.3104 0.455857 3.28296L2.42843 2.93514C2.58406 2.9077 2.73247 3.01162 2.75991 3.16725V3.16725C2.78736 3.32288 2.68344 3.47129 2.52781 3.49873L0.555234 3.84655Z" fill="black"/>
<path d="M3.9713 0.370603C3.99362 0.243994 4.11436 0.159455 4.24096 0.18178V0.18178C4.36757 0.204104 4.45211 0.324838 4.42979 0.451447L4.14683 2.05616C4.12451 2.18277 4.00377 2.26731 3.87716 2.24499V2.24499C3.75056 2.22266 3.66602 2.10193 3.68834 1.97532L3.9713 0.370603Z" fill="black"/>
<path d="M3.21655 1.30336C3.08994 1.28104 3.0054 1.1603 3.02773 1.03369V1.03369C3.05005 0.907085 3.17079 0.822546 3.29739 0.844871L4.90211 1.12783C5.02872 1.15015 5.11326 1.27088 5.09094 1.39749V1.39749C5.06861 1.5241 4.94788 1.60864 4.82127 1.58632L3.21655 1.30336Z" fill="black"/>
<path d="M16.9307 15.4307H17.4307V14.9307V13.1687C17.4307 12.2471 18.1778 11.5 19.0994 11.5C20.0209 11.5 20.768 12.2471 20.768 13.1687V14.9307V15.4307H21.268H22.8945C23.8161 15.4307 24.5632 16.1778 24.5632 17.0994C24.5632 18.021 23.8161 18.768 22.8945 18.768H21.268H20.768V19.268V20.8945C20.768 21.8161 20.0209 22.5632 19.0994 22.5632C18.1778 22.5632 17.4307 21.8161 17.4307 20.8945V19.268V18.768H16.9307H15.1687C14.2471 18.768 13.5 18.021 13.5 17.0994C13.5 16.1778 14.2471 15.4307 15.1687 15.4307H16.9307Z" fill="black" stroke="white"/>
</svg>
