<svg width="41" height="36" viewBox="0 0 41 36" fill="none" xmlns="http://www.w3.org/2000/svg">
<g id="Group 7532">
<g id="Group 7528">
<path id="Ellipse 146" d="M35.0433 18.2445C35.0433 27.4513 27.5797 34.9149 18.373 34.9149C9.16619 34.9149 1.70264 27.4513 1.70264 18.2445C1.70264 9.03778 9.16619 1.57422 18.373 1.57422C27.5797 1.57422 35.0433 9.03778 35.0433 18.2445Z" fill="url(#paint0_linear_6158_273852)"/>
<path id="Ellipse 145 (Stroke)" fill-rule="evenodd" clip-rule="evenodd" d="M6.96946 5.17267C6.68069 5.42457 6.66917 5.86493 6.93241 6.1434C7.19565 6.42187 7.63387 6.43292 7.92352 6.18202C10.8074 3.68394 14.4984 2.29646 18.329 2.28619C22.3915 2.27529 26.3051 3.81411 29.2722 6.58896C32.2393 9.36382 34.0365 13.1658 34.2974 17.2199C34.5582 21.2739 33.2631 25.2749 30.6761 28.4071C28.0891 31.5393 24.4049 33.567 20.3746 34.0769C16.3442 34.5867 12.2712 33.5403 8.9857 31.1509C5.70022 28.7615 3.44965 25.2091 2.69279 21.2178C1.97911 17.4542 2.64421 13.5675 4.55242 10.2636C4.74407 9.93175 4.65042 9.50351 4.32722 9.29763C4.00403 9.09174 3.57378 9.18625 3.38098 9.51742C1.28363 13.1198 0.549894 17.3656 1.32939 21.4763C2.15207 25.8147 4.59834 29.676 8.16952 32.2732C11.7407 34.8703 16.1679 36.0077 20.5487 35.4536C24.9295 34.8994 28.9341 32.6954 31.7461 29.2908C34.558 25.8862 35.9657 21.5374 35.6822 17.1308C35.3986 12.7242 33.4452 8.59158 30.2201 5.57543C26.995 2.55929 22.741 0.886654 18.3253 0.8985C14.1414 0.909724 10.1107 2.43245 6.96946 5.17267Z" fill="black"/>
<path id="Ellipse 147" d="M30.9862 18.3582C30.9862 25.2633 25.3885 30.861 18.4835 30.861C11.5784 30.861 5.98071 25.2633 5.98071 18.3582C5.98071 11.4531 11.5784 5.85547 18.4835 5.85547C25.3885 5.85547 30.9862 11.4531 30.9862 18.3582Z" fill="url(#paint1_linear_6158_273852)"/>
<path id="Ellipse 147 (Stroke)" fill-rule="evenodd" clip-rule="evenodd" d="M18.4835 29.5093C24.642 29.5093 29.6345 24.5168 29.6345 18.3582C29.6345 12.1996 24.642 7.20712 18.4835 7.20712C12.3249 7.20712 7.33236 12.1996 7.33236 18.3582C7.33236 24.5168 12.3249 29.5093 18.4835 29.5093ZM18.4835 30.861C25.3885 30.861 30.9862 25.2633 30.9862 18.3582C30.9862 11.4531 25.3885 5.85547 18.4835 5.85547C11.5784 5.85547 5.98071 11.4531 5.98071 18.3582C5.98071 25.2633 11.5784 30.861 18.4835 30.861Z" fill="black"/>
<path id="&#226;&#130;&#185;" d="M22.1682 14.6098C22.7467 14.6098 23.1664 15.1605 23.0132 15.7183C22.9087 16.0988 22.5628 16.3625 22.1682 16.3625H14.7902C14.2117 16.3625 13.7919 15.8119 13.9451 15.2541C14.0496 14.8736 14.3956 14.6098 14.7902 14.6098H22.1682ZM19.2866 25.4527C19.0207 25.4527 18.7684 25.3353 18.5972 25.1318L14.1351 19.8296C13.9997 19.6688 13.9248 19.4657 13.9234 19.2554L13.9218 19.0124C13.9185 18.5124 14.3229 18.1053 14.8229 18.1053H16.2638C16.8729 18.1053 17.3739 17.9964 17.7669 17.7785C18.1664 17.5541 18.4644 17.2537 18.6609 16.8774C18.8574 16.4946 18.9557 16.0688 18.9557 15.6001C18.9557 15.0917 18.864 14.6429 18.6806 14.2534C18.4972 13.8639 18.2057 13.5602 17.8062 13.3424C17.4067 13.1245 16.8794 13.0156 16.2245 13.0156H14.8248C14.2323 13.0156 13.801 12.4536 13.9543 11.8813L14.0021 11.7031C14.1076 11.3091 14.4646 11.0352 14.8725 11.0352H16.2245C17.3838 11.0352 18.3465 11.2101 19.1128 11.56C19.8791 11.9098 20.4522 12.4182 20.8321 13.0849C21.2185 13.7517 21.4117 14.557 21.4117 15.501C21.4117 16.3262 21.2709 17.0557 20.9893 17.6894C20.7077 18.3166 20.2525 18.8249 19.6237 19.2144C19.3821 19.3615 19.1101 19.4871 18.8076 19.5914C18.1192 19.8286 17.7593 20.6926 18.2268 21.2508L21.6157 25.2977C21.6299 25.3147 21.6377 25.3362 21.6377 25.3583C21.6377 25.4105 21.5954 25.4527 21.5433 25.4527H19.2866ZM22.1718 11.0352C22.7522 11.0352 23.1722 11.5891 23.0156 12.148C22.9096 12.5263 22.5647 12.7878 22.1718 12.7878H16.4701C15.8916 12.7878 15.4719 12.2372 15.6251 11.6794C15.7296 11.2989 16.0755 11.0352 16.4701 11.0352H22.1718Z" fill="white"/>
<path id="&#226;&#130;&#185; (Stroke)" fill-rule="evenodd" clip-rule="evenodd" d="M19.286 25.4541C19.0201 25.4541 18.7678 25.3366 18.5966 25.1332L14.1344 19.831C13.9991 19.6701 13.9242 19.467 13.9228 19.2568L13.9212 19.0137C13.9179 18.5137 14.3223 18.1066 14.8223 18.1066H16.2632C16.8723 18.1066 17.3733 17.9977 17.7663 17.7799C18.1658 17.5554 18.4638 17.2551 18.6603 16.8788C18.6713 16.8575 18.6819 16.836 18.6922 16.8144C18.7613 16.6702 18.8167 16.52 18.8585 16.3639H14.7896C14.2111 16.3639 13.7913 15.8132 13.9445 15.2554C14.049 14.8749 14.395 14.6112 14.7896 14.6112H18.8172C18.7793 14.4873 18.7335 14.3685 18.68 14.2547C18.6649 14.2228 18.6492 14.1914 18.6327 14.1606C18.4481 13.816 18.1724 13.5437 17.8056 13.3437C17.736 13.3057 17.6625 13.2711 17.5851 13.2397C17.2754 13.1143 16.9035 13.0418 16.4695 13.0223C16.3897 13.0187 16.3079 13.0169 16.2239 13.0169H14.8241C14.2317 13.0169 13.8004 12.455 13.9537 11.8827L14.0015 11.7044C14.107 11.3104 14.464 11.0365 14.8719 11.0365H16.2239C16.2885 11.0365 16.3525 11.037 16.4159 11.0381C16.4337 11.037 16.4515 11.0365 16.4695 11.0365H22.1712C22.7515 11.0365 23.1716 11.5905 23.015 12.1493C22.909 12.5277 22.5641 12.7892 22.1712 12.7892H20.642C20.7098 12.8844 20.7729 12.9835 20.8315 13.0862C20.8607 13.1366 20.8888 13.1878 20.9158 13.2397C21.063 13.5231 21.1774 13.8301 21.259 14.1606C21.2949 14.3062 21.3245 14.4564 21.3477 14.6112H22.1676C22.7461 14.6112 23.1658 15.1618 23.0126 15.7196C22.9081 16.1001 22.5622 16.3639 22.1676 16.3639H21.3554C21.3345 16.518 21.3078 16.6682 21.2752 16.8144C21.206 17.1244 21.1105 17.4166 20.9887 17.6908C20.7071 18.3179 20.2519 18.8262 19.6231 19.2157C19.3815 19.3628 19.1095 19.4885 18.807 19.5927C18.1185 19.8299 17.7587 20.6939 18.2262 21.2521L21.6151 25.299C21.6293 25.316 21.6371 25.3375 21.6371 25.3596C21.6371 25.4118 21.5948 25.4541 21.5427 25.4541H19.286ZM21.7359 16.8144C21.6596 17.1876 21.5482 17.5411 21.4004 17.8737L21.3997 17.8753C21.0784 18.5908 20.5595 19.1657 19.8604 19.5987L19.8589 19.5996L19.8574 19.6005C19.5849 19.7665 19.2829 19.9053 18.9537 20.0187C18.7442 20.0909 18.5786 20.2627 18.5053 20.4594C18.4341 20.6504 18.4594 20.8289 18.5716 20.9629L21.9605 25.0098C22.0426 25.1079 22.0876 25.2317 22.0876 25.3596C22.0876 25.6606 21.8437 25.9046 21.5427 25.9046H19.286C18.8872 25.9046 18.5087 25.7285 18.2519 25.4233L13.7897 20.1211C13.5867 19.8798 13.4744 19.5751 13.4723 19.2598L13.4707 19.0167C13.4657 18.2667 14.0723 17.6561 14.8223 17.6561H16.2632C16.8212 17.6561 17.2403 17.556 17.5468 17.3864C17.82 17.2327 18.0266 17.042 18.1763 16.8144H14.7896C13.9137 16.8144 13.2781 15.9807 13.5101 15.1361C13.6683 14.5599 14.1921 14.1606 14.7896 14.1606H18.0973C17.9673 13.9939 17.7999 13.8537 17.5899 13.7393C17.2793 13.5699 16.8345 13.4675 16.2239 13.4675H14.8241C13.9354 13.4675 13.2886 12.6245 13.5185 11.7661L13.5663 11.5878C13.7246 10.9969 14.2601 10.5859 14.8719 10.5859H16.2239C16.2856 10.5859 16.3468 10.5864 16.4076 10.5874C16.4281 10.5864 16.4488 10.5859 16.4695 10.5859H22.1712C23.0499 10.5859 23.686 11.4247 23.4488 12.2709C23.2883 12.8438 22.7661 13.2397 22.1712 13.2397H21.4165C21.5478 13.5291 21.6492 13.8364 21.7218 14.1606H22.1676C23.0435 14.1606 23.6791 14.9943 23.4471 15.8389C23.2888 16.4151 22.765 16.8144 22.1676 16.8144H21.7359Z" fill="black"/>
</g>
<g id="Group 7529">
<path id="Rectangle 1502" d="M1.72394 4.07382C1.67833 3.81516 1.85105 3.56849 2.10971 3.52289C2.36838 3.47728 2.61504 3.64999 2.66065 3.90866L3.23874 7.18714C3.28434 7.4458 3.11163 7.69247 2.85296 7.73808C2.5943 7.78369 2.34764 7.61097 2.30203 7.35231L1.72394 4.07382Z" fill="#F79B16"/>
<path id="Rectangle 1503" d="M0.923189 6.39007C0.664523 6.43568 0.41786 6.26297 0.37225 6.0043C0.326641 5.74564 0.499356 5.49897 0.758021 5.45336L4.0365 4.87528C4.29517 4.82967 4.54183 5.00238 4.58744 5.26105C4.63305 5.51971 4.46034 5.76638 4.20167 5.81199L0.923189 6.39007Z" fill="#F79B16"/>
</g>
<path id="Union" fill-rule="evenodd" clip-rule="evenodd" d="M31.0897 11.5469C29.0991 11.5469 27.4853 13.1606 27.4853 15.1513V18.0798H24.5568C22.5661 18.0798 20.9524 19.6936 20.9524 21.6842C20.9524 23.6749 22.5661 25.2886 24.5568 25.2886H27.4853V27.9919C27.4853 29.9826 29.0991 31.5963 31.0897 31.5963C33.0804 31.5963 34.6941 29.9826 34.6941 27.9919V25.2886H37.3974C39.3881 25.2886 41.0018 23.6749 41.0018 21.6842C41.0018 19.6936 39.3881 18.0798 37.3974 18.0798H34.6941V15.1513C34.6941 13.1606 33.0804 11.5469 31.0897 11.5469Z" fill="#34B350"/>
<path id="Union (Stroke)" fill-rule="evenodd" clip-rule="evenodd" d="M28.837 19.4315H24.5568C23.3126 19.4315 22.304 20.4401 22.304 21.6842C22.304 22.9284 23.3126 23.937 24.5568 23.937H28.837V27.9919C28.837 29.2361 29.8456 30.2447 31.0897 30.2447C32.3339 30.2447 33.3425 29.2361 33.3425 27.9919V23.937H37.3974C38.6416 23.937 39.6502 22.9284 39.6502 21.6842C39.6502 20.4401 38.6416 19.4315 37.3974 19.4315H33.3425V15.1513C33.3425 13.9071 32.3339 12.8985 31.0897 12.8985C29.8456 12.8985 28.837 13.9071 28.837 15.1513V19.4315ZM27.4853 15.1513C27.4853 13.1606 29.0991 11.5469 31.0897 11.5469C33.0804 11.5469 34.6941 13.1606 34.6941 15.1513V18.0798H37.3974C39.3881 18.0798 41.0018 19.6936 41.0018 21.6842C41.0018 23.6749 39.3881 25.2886 37.3974 25.2886H34.6941V27.9919C34.6941 29.9826 33.0804 31.5963 31.0897 31.5963C29.0991 31.5963 27.4853 29.9826 27.4853 27.9919V25.2886H24.5568C22.5661 25.2886 20.9524 23.6749 20.9524 21.6842C20.9524 19.6936 22.5661 18.0798 24.5568 18.0798H27.4853V15.1513Z" fill="black"/>
<g id="Group 7530">
<path id="Rectangle 1502_2" d="M6.60176 0.615389C6.63887 0.404961 6.83953 0.264454 7.04996 0.301558C7.26039 0.338662 7.40089 0.539327 7.36379 0.749755L6.89351 3.41685C6.8564 3.62728 6.65574 3.76778 6.44531 3.73068C6.23488 3.69358 6.09438 3.49291 6.13148 3.28248L6.60176 0.615389Z" fill="#F79B16"/>
<path id="Rectangle 1503_2" d="M5.34635 2.16484C5.13592 2.12774 4.99541 1.92707 5.03251 1.71664C5.06962 1.50621 5.27028 1.36571 5.48071 1.40281L8.14781 1.87309C8.35823 1.9102 8.49874 2.11086 8.46164 2.32129C8.42453 2.53172 8.22387 2.67222 8.01344 2.63512L5.34635 2.16484Z" fill="#F79B16"/>
</g>
</g>
<defs>
<linearGradient id="paint0_linear_6158_273852" x1="6.65868" y1="8.10718" x2="30.8757" y2="27.0303" gradientUnits="userSpaceOnUse">
<stop stop-color="#CDB034"/>
<stop offset="0.0604144" stop-color="#FFDE50"/>
<stop offset="0.415765" stop-color="#FFDE50"/>
<stop offset="0.527692" stop-color="#FFEA94"/>
<stop offset="0.677582" stop-color="#FFDE50"/>
<stop offset="0.79742" stop-color="#FFEA94"/>
<stop offset="1" stop-color="#FFDE50"/>
</linearGradient>
<linearGradient id="paint1_linear_6158_273852" x1="9.58511" y1="11.3747" x2="27.7197" y2="24.1027" gradientUnits="userSpaceOnUse">
<stop stop-color="#F79200"/>
<stop offset="0.5" stop-color="#F79200"/>
<stop offset="0.651042" stop-color="#F8B24D"/>
<stop offset="0.791667" stop-color="#F79200"/>
<stop offset="1" stop-color="#F79200"/>
</linearGradient>
</defs>
</svg>
