<svg width="24" height="24" viewBox="0 0 24 24" fill="none" xmlns="http://www.w3.org/2000/svg">
<path d="M6.64041 19.0148C6.03544 18.4099 4.42931 16.621 4.41877 13.6538C4.41914 11.6309 5.20809 9.72807 6.64041 8.2959L3.51633 5.17163C1.2488 7.43897 0 10.4519 0 13.6554C0 16.8588 1.2488 19.8717 3.51633 22.1391C3.65363 22.2764 3.83353 22.345 4.01348 22.345C4.19344 22.345 4.37339 22.2763 4.51069 22.139L6.64041 20.0092C6.915 19.7346 6.915 19.2894 6.64041 19.0148Z" fill="#02A44A"/>
<path d="M20.4837 5.17151C18.216 2.90402 15.2031 1.65527 12 1.65527C8.79691 1.65527 5.78402 2.90402 3.51634 5.17155C3.2417 5.44619 3.24203 5.89155 3.51634 6.16591L5.64606 8.29577C5.9207 8.57041 6.36616 8.57013 6.64052 8.29573C8.07283 6.86304 9.97623 6.07399 12 6.07399C14.0238 6.07399 15.9272 6.86304 17.3596 8.29568C17.4914 8.42754 17.6703 8.50169 17.8568 8.50169C18.1606 8.50169 18.3393 8.3104 18.354 8.29573L20.4837 6.16587C20.7583 5.89127 20.758 5.44587 20.4837 5.17151Z" fill="#92EEA1"/>
<path d="M20.4837 5.17151C18.216 2.90402 15.2031 1.65527 12 1.65527V6.07404C14.0238 6.07404 15.9272 6.86309 17.3595 8.29573C17.4914 8.42759 17.6703 8.50174 17.8568 8.50174C18.1606 8.50174 18.3393 8.31045 18.354 8.29577L20.4837 6.16591C20.7583 5.89127 20.758 5.44587 20.4837 5.17151Z" fill="#CDACF6"/>
<path d="M17.3596 19.0148C17.9645 18.4099 19.5707 16.621 19.5812 13.6538C19.5808 11.6309 18.7919 9.72807 17.3596 8.2959L20.4836 5.17163C22.7512 7.43897 24 10.4519 24 13.6554C24 16.8588 22.7512 19.8717 20.4836 22.1391C20.3464 22.2764 20.1664 22.345 19.9865 22.345C19.8065 22.345 19.6266 22.2763 19.4893 22.139L17.3596 20.0092C17.085 19.7346 17.085 19.2894 17.3596 19.0148Z" fill="#AC64E2"/>
<path d="M4.41877 13.6538C4.41914 11.6309 5.20809 9.72807 6.64041 8.2959L3.51633 5.17163C1.2488 7.43897 0 10.4519 0 13.6553L4.41877 13.6538Z" fill="#36D190"/>
<path d="M17.3596 19.0148C17.9645 18.4098 19.5707 16.6209 19.5812 13.6538L24 13.6553C24 16.8587 22.7512 19.8717 20.4836 22.139C20.3464 22.2763 20.1664 22.345 19.9865 22.345C19.8065 22.345 19.6266 22.2763 19.4893 22.139L17.3596 20.0091C17.085 19.7345 17.085 19.2894 17.3596 19.0148Z" fill="#8C64E2"/>
<path d="M12 15.8646C10.7818 15.8646 9.79065 14.8734 9.79065 13.6552C9.79065 12.1162 11.1578 5.9198 11.3137 5.21832C11.3851 4.89661 11.6705 4.66772 12.0001 4.66772C12.3296 4.66772 12.615 4.89661 12.6864 5.21832C12.8424 5.9198 14.2095 12.1162 14.2095 13.6552C14.2094 14.8734 13.2182 15.8646 12 15.8646Z" fill="#0F0F0F"/>
<path d="M12 15.8646V4.66772C12.3295 4.66772 12.6149 4.89661 12.6864 5.21832C12.8423 5.9198 14.2094 12.1162 14.2094 13.6552C14.2094 14.8735 13.2182 15.8646 12 15.8646Z" fill="#555555"/>
</svg>

