<svg width="25" height="24" viewBox="0 0 25 24" fill="none" xmlns="http://www.w3.org/2000/svg">
<g clip-path="url(#clip0_8622_1220)">
<path d="M17.3873 0H13.8598C13.4425 0 13.1039 0.336 13.1039 0.75V2.75C13.1039 3.164 13.4425 3.5 13.8598 3.5H17.3873C17.8046 3.5 18.1433 3.164 18.1433 2.75V0.75C18.1433 0.336 17.8046 0 17.3873 0Z" fill="#555555"/>
<path d="M15.6236 0H13.8598C13.4425 0 13.1039 0.336 13.1039 0.75V2.75C13.1039 3.164 13.4425 3.5 13.8598 3.5H15.6236V0Z" fill="#0F0F0F"/>
<path d="M19.403 24H4.78886C4.3716 24 4.03296 23.664 4.03296 23.25V2.75C4.03296 2.336 4.3716 2 4.78886 2H19.403C19.8203 2 20.1589 2.336 20.1589 2.75V23.25C20.1589 23.664 19.8203 24 19.403 24Z" fill="#DFB5FF"/>
<path d="M20.411 3.5H3.78105C3.36379 3.5 3.02515 3.164 3.02515 2.75C3.02515 2.336 3.36379 2 3.78105 2H20.411C20.8282 2 21.1669 2.336 21.1669 2.75C21.1669 3.164 20.8282 3.5 20.411 3.5Z" fill="#BD78F1"/>
<path d="M20.411 24H3.78105C3.36379 24 3.02515 23.664 3.02515 23.25C3.02515 22.836 3.36379 22.5 3.78105 22.5H20.411C20.8282 22.5 21.1669 22.836 21.1669 23.25C21.1669 23.664 20.8282 24 20.411 24Z" fill="#BD78F1"/>
<path d="M20.411 8.5H3.78105C3.36379 8.5 3.02515 8.164 3.02515 7.75C3.02515 7.336 3.36379 7 3.78105 7H20.411C20.8282 7 21.1669 7.336 21.1669 7.75C21.1669 8.164 20.8282 8.5 20.411 8.5Z" fill="#BD78F1"/>
<path d="M20.411 19H3.78105C3.36379 19 3.02515 18.664 3.02515 18.25C3.02515 17.836 3.36379 17.5 3.78105 17.5H20.411C20.8282 17.5 21.1669 17.836 21.1669 18.25C21.1669 18.664 20.8282 19 20.411 19Z" fill="#BD78F1"/>
<path d="M12.096 16.4999C10.6416 16.4999 9.07239 15.5389 9.07239 13.9869C9.07239 12.7519 10.943 10.4449 11.5175 9.76695C11.8047 9.42795 12.3873 9.42795 12.6745 9.76695C13.249 10.4449 15.1196 12.7519 15.1196 13.9869C15.1196 15.5389 13.5504 16.4999 12.096 16.4999Z" fill="#12C360"/>
<path d="M12.096 19H4.03296V22.5H12.096V19ZM12.096 8.5H4.03296V17.5H12.096V16.5C10.6416 16.5 9.07233 15.539 9.07233 13.987C9.07233 12.752 10.9429 10.445 11.5174 9.767C11.6606 9.598 11.8783 9.513 12.096 9.513V8.5ZM12.096 3.5H4.03296V7H12.096V3.5Z" fill="#DAAAFE"/>
<path d="M12.096 2H3.78105C3.36379 2 3.02515 2.336 3.02515 2.75C3.02515 3.164 3.36379 3.5 3.78105 3.5H4.03302H12.096V2Z" fill="#AC64E2"/>
<path d="M12.096 22.5H4.03302H3.78105C3.36379 22.5 3.02515 22.836 3.02515 23.25C3.02515 23.664 3.36379 24 3.78105 24H12.096V22.5Z" fill="#AC64E2"/>
<path d="M12.096 7H4.03302H3.78105C3.36379 7 3.02515 7.336 3.02515 7.75C3.02515 8.164 3.36379 8.5 3.78105 8.5H4.03302H12.096V7Z" fill="#AC64E2"/>
<path d="M12.096 17.5H4.03302H3.78105C3.36379 17.5 3.02515 17.836 3.02515 18.25C3.02515 18.664 3.36379 19 3.78105 19H4.03302H12.096V17.5Z" fill="#AC64E2"/>
<path d="M12.096 9.51294C11.8783 9.51294 11.6606 9.59794 11.5175 9.76694C10.943 10.4449 9.07239 12.7519 9.07239 13.9869C9.07239 15.5389 10.6416 16.4999 12.096 16.4999V9.51294Z" fill="#00AE4D"/>
</g>
<defs>
<clipPath id="clip0_8622_1220">
<rect width="24.189" height="24" fill="white" transform="translate(0.00146484)"/>
</clipPath>
</defs>
</svg>

