<svg width="25" height="24" viewBox="0 0 25 24" fill="none" xmlns="http://www.w3.org/2000/svg">
<path d="M22.8899 8.01562H1.29937C0.77753 8.01562 0.354492 8.43536 0.354492 8.95312V19.2656C0.354492 19.7834 0.77753 20.2031 1.29937 20.2031H22.8899C23.4118 20.2031 23.8348 19.7834 23.8348 19.2656V8.95312C23.8348 8.43536 23.4118 8.01562 22.8899 8.01562Z" fill="#00AE4D"/>
<path d="M19.1809 9.89062H5.00771C5.00771 10.5122 4.75884 11.1084 4.31584 11.5479C3.87284 11.9874 3.272 12.2344 2.64551 12.2344V15.9844C3.272 15.9844 3.87284 16.2313 4.31584 16.6708C4.75884 17.1104 5.00771 17.7065 5.00771 18.3281H19.1809C19.1809 17.7065 19.4298 17.1104 19.8728 16.6708C20.3158 16.2313 20.9167 15.9844 21.5431 15.9844V12.2344C20.9167 12.2344 20.3158 11.9874 19.8728 11.5479C19.4298 11.1084 19.1809 10.5122 19.1809 9.89062Z" fill="#80DE95"/>
<path d="M12.0946 16.4531C13.3992 16.4531 14.4568 15.4038 14.4568 14.1094C14.4568 12.815 13.3992 11.7656 12.0946 11.7656C10.79 11.7656 9.73242 12.815 9.73242 14.1094C9.73242 15.4038 10.79 16.4531 12.0946 16.4531Z" fill="#00AE4D"/>
<path d="M3.11795 5.67188H21.0707C21.196 5.67188 21.3162 5.72126 21.4048 5.80917C21.4934 5.89708 21.5431 6.0163 21.5431 6.14062V8.01562H2.64551V6.14062C2.64551 6.0163 2.69528 5.89708 2.78388 5.80917C2.87248 5.72126 2.99265 5.67188 3.11795 5.67188Z" fill="#019944"/>
<path d="M5.48025 3.79688H18.7086C18.8339 3.79688 18.9541 3.84626 19.0427 3.93417C19.1313 4.02208 19.181 4.1413 19.181 4.26562V5.67188H5.00781V4.26562C5.00781 4.1413 5.05759 4.02208 5.14619 3.93417C5.23479 3.84626 5.35495 3.79688 5.48025 3.79688Z" fill="#007D37"/>
</svg>

