<svg width="25" height="24" viewBox="0 0 25 24" fill="none" xmlns="http://www.w3.org/2000/svg">
<g clip-path="url(#clip0_16830_6343)">
<path d="M3.97852 7.10028L4.95169 7.10028V14.3038C5.72696 14.2385 6.58699 14.1973 7.49692 14.1863V7.10028L8.47011 7.10028C8.78237 7.10028 8.93873 6.72273 8.7179 6.50195L6.7199 4.50444C6.44618 4.23079 6.00245 4.23079 5.72873 4.50444L3.73073 6.50195C3.5099 6.72273 3.66626 7.10028 3.97852 7.10028Z" fill="#00AE4D"/>
<path d="M9.13743 4.96434L10.6994 4.96434V13.6975C10.9627 13.279 12.5707 12.9281 14.7844 12.7685V4.96434L16.3463 4.96434C16.8475 4.96434 17.0984 4.35837 16.744 4.00404L13.5373 0.798104C13.0979 0.358904 12.3858 0.358904 11.9465 0.798104L8.73974 4.00404C8.38531 4.35837 8.63627 4.96434 9.13743 4.96434Z" fill="#00AE4D"/>
<path d="M17.0136 7.10028L17.9867 7.10028V12.5727C18.8968 12.5842 19.7568 12.6258 20.532 12.6914V7.10028L21.5051 7.10028C21.8174 7.10028 21.9738 6.72273 21.7529 6.50195L19.7549 4.50444C19.4812 4.23079 19.0375 4.23079 18.7638 4.50444L16.7658 6.50195C16.5449 6.72273 16.7013 7.10028 17.0136 7.10028Z" fill="#00AE4D"/>
<path d="M9.59297 17.4321C13.3529 17.4321 16.4009 16.9204 16.4009 16.2891C16.4009 15.6579 13.3529 15.1461 9.59297 15.1461C5.83305 15.1461 2.78503 15.6579 2.78503 16.2891C2.78503 16.9204 5.83305 17.4321 9.59297 17.4321Z" fill="#D6E56E"/>
<path d="M9.59296 17.4321C5.83305 17.4321 2.78503 16.9203 2.78503 16.2891V18.8037C2.78503 19.435 5.83305 19.9467 9.59296 19.9467C13.3529 19.9467 16.4009 19.435 16.4009 18.8037V16.2891C16.4008 16.9204 13.3528 17.4321 9.59296 17.4321Z" fill="#B1BF4F"/>
<path d="M8.02253 20.9626C4.26262 20.9626 1.2146 20.4508 1.2146 19.8196V22.3342C1.2146 22.9655 4.26262 23.4772 8.02253 23.4772C11.7824 23.4772 14.8305 22.9655 14.8305 22.3342V19.8196C14.8304 20.4509 11.7824 20.9626 8.02253 20.9626Z" fill="#B1BF4F"/>
<path d="M14.6627 19.5666C13.4162 19.7999 11.6069 19.9468 9.59294 19.9468C6.35109 19.9468 3.63876 19.5664 2.9528 19.0569C1.87217 19.2592 1.2146 19.5265 1.2146 19.8197C1.2146 20.4509 4.26262 20.9627 8.02254 20.9627C11.7825 20.9627 14.8305 20.4509 14.8305 19.8197C14.8305 19.7327 14.7723 19.648 14.6627 19.5666Z" fill="#D6E56E"/>
<path d="M17.4985 18.9341C17.1129 18.9341 16.7349 18.9286 16.3668 18.9183C16.2199 19.1663 15.6009 19.3909 14.6627 19.5665C14.7723 19.648 14.8305 19.7326 14.8305 19.8196V21.3495C15.6495 21.4083 16.5513 21.441 17.4985 21.441C21.2468 21.441 24.2854 20.9308 24.2854 20.3015V17.7947C24.2852 18.424 21.2467 18.9341 17.4985 18.9341Z" fill="#C7D46F"/>
<path d="M17.4984 16.4374C17.1247 16.4374 16.7582 16.4323 16.4009 16.4225V18.8037C16.4009 18.8458 16.3869 18.8873 16.3605 18.9282C16.7305 18.9387 17.1106 18.9443 17.4984 18.9443C21.2467 18.9443 24.2853 18.4341 24.2853 17.8048V15.298C24.2852 15.9273 21.2466 16.4374 17.4984 16.4374Z" fill="#B1BF4F"/>
<path d="M17.4984 13.9285C13.7501 13.9285 10.7115 13.4184 10.7115 12.7891V15.1616C13.9392 15.2512 16.4008 15.7219 16.4008 16.2892V16.4205C16.7581 16.4302 17.1247 16.4354 17.4984 16.4354C21.2467 16.4354 24.2853 15.9252 24.2853 15.2959V12.7891C24.2852 13.4184 21.2466 13.9285 17.4984 13.9285Z" fill="#C7D46F"/>
<path d="M17.4984 11.4196C21.2467 11.4196 24.2853 10.9094 24.2853 10.2801C24.2853 9.65079 21.2467 9.14062 17.4984 9.14062C13.7501 9.14062 10.7115 9.65079 10.7115 10.2801C10.7115 10.9094 13.7501 11.4196 17.4984 11.4196Z" fill="#D6E56E"/>
<path d="M17.4984 11.4196C13.7501 11.4196 10.7115 10.9095 10.7115 10.2802V12.787C10.7115 13.4163 13.7501 13.9265 17.4984 13.9265C21.2467 13.9265 24.2853 13.4163 24.2853 12.787V10.2802C24.2852 10.9095 21.2466 11.4196 17.4984 11.4196Z" fill="#B1BF4F"/>
<path d="M4.09448 18.0253C3.93916 18.0253 3.81323 18.1512 3.81323 18.3065V19.408C3.98273 19.4536 4.17078 19.497 4.37573 19.5381V18.3065C4.37573 18.1512 4.2498 18.0253 4.09448 18.0253Z" fill="#C7D46F"/>
<path d="M5.56824 18.3969C5.41292 18.3969 5.28699 18.5228 5.28699 18.6781V19.6891C5.46702 19.7139 5.6548 19.737 5.84949 19.7586V18.6781C5.84949 18.5228 5.72356 18.3969 5.56824 18.3969Z" fill="#C7D46F"/>
<path d="M7.43701 18.6631C7.28169 18.6631 7.15576 18.789 7.15576 18.9443V19.8713C7.33961 19.8832 7.52713 19.8937 7.71826 19.9029V18.9443C7.71826 18.789 7.59233 18.6631 7.43701 18.6631Z" fill="#C7D46F"/>
<path d="M9.58887 18.765C9.43355 18.765 9.30762 18.8909 9.30762 19.0463V19.9458C9.4023 19.9465 9.49734 19.9469 9.59298 19.9469C9.68585 19.9469 9.77815 19.9465 9.87012 19.9459V19.0463C9.87012 18.8909 9.74419 18.765 9.58887 18.765Z" fill="#C7D46F"/>
<path d="M11.7407 18.6631C11.5854 18.6631 11.4595 18.789 11.4595 18.9443V19.9033C11.6506 19.8942 11.8381 19.8836 12.022 19.8718V18.9443C12.022 18.789 11.896 18.6631 11.7407 18.6631Z" fill="#C7D46F"/>
<path d="M13.6096 18.3969C13.4543 18.3969 13.3284 18.5228 13.3284 18.6781V19.7595C13.523 19.738 13.7108 19.7149 13.8909 19.6903V18.6781C13.8909 18.5228 13.7649 18.3969 13.6096 18.3969Z" fill="#C7D46F"/>
<path d="M15.0833 18.0253C14.9279 18.0253 14.802 18.1512 14.802 18.3065V19.5397C15.0068 19.4989 15.1949 19.4556 15.3645 19.4102V18.3065C15.3645 18.1512 15.2386 18.0253 15.0833 18.0253Z" fill="#C7D46F"/>
<path d="M2.52405 21.5557C2.36873 21.5557 2.2428 21.6816 2.2428 21.8369V22.9384C2.4123 22.984 2.60034 23.0274 2.8053 23.0684V21.8369C2.8053 21.6816 2.67937 21.5557 2.52405 21.5557Z" fill="#C7D46F"/>
<path d="M3.9978 21.9273C3.84248 21.9273 3.71655 22.0532 3.71655 22.2085V23.2195C3.89658 23.2443 4.08437 23.2674 4.27905 23.289V22.2085C4.27905 22.0532 4.15312 21.9273 3.9978 21.9273Z" fill="#C7D46F"/>
<path d="M5.86658 22.1935C5.71126 22.1935 5.58533 22.3194 5.58533 22.4747V23.4017C5.76918 23.4135 5.9567 23.4241 6.14783 23.4333V22.4747C6.14783 22.3194 6.0219 22.1935 5.86658 22.1935Z" fill="#C7D46F"/>
<path d="M8.01843 22.2954C7.86311 22.2954 7.73718 22.4213 7.73718 22.5767V23.4762C7.83186 23.4769 7.9269 23.4773 8.02254 23.4773C8.11541 23.4773 8.20771 23.4769 8.29968 23.4763V22.5767C8.29968 22.4213 8.17375 22.2954 8.01843 22.2954Z" fill="#C7D46F"/>
<path d="M10.1703 22.1935C10.015 22.1935 9.88904 22.3194 9.88904 22.4747V23.4337C10.0802 23.4246 10.2677 23.414 10.4515 23.4022V22.4747C10.4515 22.3194 10.3256 22.1935 10.1703 22.1935Z" fill="#C7D46F"/>
<path d="M12.0392 21.9273C11.8839 21.9273 11.7579 22.0532 11.7579 22.2085V23.2899C11.9526 23.2684 12.1404 23.2453 12.3204 23.2207V22.2085C12.3204 22.0532 12.1945 21.9273 12.0392 21.9273Z" fill="#C7D46F"/>
<path d="M13.5128 21.5557C13.3575 21.5557 13.2316 21.6816 13.2316 21.8369V23.0701C13.4364 23.0292 13.6245 22.986 13.7941 22.9406V21.8369C13.7941 21.6816 13.6681 21.5557 13.5128 21.5557Z" fill="#C7D46F"/>
<path d="M15.3491 20.1603C15.1938 20.1603 15.0679 20.2862 15.0679 20.4415V21.3654C15.2516 21.3773 15.4393 21.3877 15.6304 21.3969V20.4415C15.6304 20.2862 15.5044 20.1603 15.3491 20.1603Z" fill="#B1BF4F"/>
<path d="M17.4943 20.2618C17.3389 20.2618 17.213 20.3878 17.213 20.5431V21.4397C17.3078 21.4404 17.4027 21.441 17.4984 21.441C17.5913 21.441 17.6835 21.4406 17.7755 21.4399V20.5431C17.7755 20.3878 17.6496 20.2618 17.4943 20.2618Z" fill="#B1BF4F"/>
<path d="M19.6395 20.1603C19.4842 20.1603 19.3583 20.2862 19.3583 20.4415V21.3977C19.5494 21.3885 19.7369 21.378 19.9208 21.3662V20.4415C19.9208 20.2862 19.7948 20.1603 19.6395 20.1603Z" fill="#B1BF4F"/>
<path d="M21.5026 19.8948C21.3472 19.8948 21.2213 20.0207 21.2213 20.176V21.2542C21.416 21.2328 21.6038 21.2096 21.7838 21.185V20.176C21.7838 20.0207 21.6579 19.8948 21.5026 19.8948Z" fill="#B1BF4F"/>
<path d="M22.9717 19.5244C22.8164 19.5244 22.6904 19.6503 22.6904 19.8057V21.0352C22.8953 20.9944 23.0834 20.9512 23.2529 20.9057V19.8057C23.2529 19.6503 23.127 19.5244 22.9717 19.5244Z" fill="#B1BF4F"/>
<path d="M17.4944 17.7651C17.3391 17.7651 17.2131 17.8911 17.2131 18.0464V18.9433C17.3078 18.9439 17.4029 18.9443 17.4985 18.9443C17.5914 18.9443 17.6837 18.9439 17.7756 18.9432V18.0464C17.7756 17.8911 17.6497 17.7651 17.4944 17.7651Z" fill="#C7D46F"/>
<path d="M19.6395 17.6636C19.4842 17.6636 19.3583 17.7895 19.3583 17.9448V18.901C19.5494 18.8918 19.7369 18.8813 19.9208 18.8695V17.9448C19.9208 17.7895 19.7948 17.6636 19.6395 17.6636Z" fill="#C7D46F"/>
<path d="M21.5027 17.3981C21.3474 17.3981 21.2214 17.524 21.2214 17.6793V18.7575C21.4161 18.736 21.6039 18.7129 21.7839 18.6883V17.6793C21.7839 17.524 21.658 17.3981 21.5027 17.3981Z" fill="#C7D46F"/>
<path d="M22.9718 17.0277C22.8165 17.0277 22.6906 17.1536 22.6906 17.309V18.5385C22.8954 18.4977 23.0835 18.4544 23.2531 18.409V17.309C23.2531 17.1536 23.1271 17.0277 22.9718 17.0277Z" fill="#C7D46F"/>
<path d="M12.017 14.5188C11.8616 14.5188 11.7357 14.6447 11.7357 14.8V15.204C11.9271 15.2146 12.1148 15.2266 12.2982 15.24V14.8C12.2982 14.6447 12.1723 14.5188 12.017 14.5188Z" fill="#B1BF4F"/>
<path d="M13.4861 14.8892C13.3308 14.8892 13.2048 15.0151 13.2048 15.1704V15.3201C13.3992 15.3406 13.5868 15.3627 13.7673 15.3862V15.1704C13.7673 15.0151 13.6414 14.8892 13.4861 14.8892Z" fill="#B1BF4F"/>
<path d="M15.3492 15.1547C15.1939 15.1547 15.068 15.2806 15.068 15.4359V15.6098C15.2778 15.6574 15.466 15.7078 15.6305 15.7606V15.4359C15.6305 15.2806 15.5046 15.1547 15.3492 15.1547Z" fill="#B1BF4F"/>
<path d="M17.4944 15.2562C17.3391 15.2562 17.2131 15.3822 17.2131 15.5375V16.4343C17.3078 16.435 17.4029 16.4353 17.4985 16.4353C17.5914 16.4353 17.6837 16.4349 17.7756 16.4343V15.5375C17.7756 15.3822 17.6497 15.2562 17.4944 15.2562Z" fill="#B1BF4F"/>
<path d="M19.6395 15.1547C19.4842 15.1547 19.3583 15.2806 19.3583 15.4359V16.392C19.5494 16.3829 19.7369 16.3723 19.9208 16.3605V15.4359C19.9208 15.2806 19.7948 15.1547 19.6395 15.1547Z" fill="#B1BF4F"/>
<path d="M21.5026 14.8892C21.3472 14.8892 21.2213 15.0151 21.2213 15.1704V16.2486C21.416 16.2271 21.6038 16.204 21.7838 16.1794V15.1704C21.7838 15.0151 21.6579 14.8892 21.5026 14.8892Z" fill="#B1BF4F"/>
<path d="M22.9718 14.5188C22.8165 14.5188 22.6906 14.6447 22.6906 14.8V16.0296C22.8954 15.9888 23.0835 15.9455 23.2531 15.9001V14.8C23.2531 14.6447 23.1271 14.5188 22.9718 14.5188Z" fill="#B1BF4F"/>
<path d="M12.017 12.0099C11.8616 12.0099 11.7357 12.1358 11.7357 12.2911V13.389C11.9052 13.4346 12.0932 13.4781 12.2982 13.5191V12.2911C12.2982 12.1358 12.1723 12.0099 12.017 12.0099Z" fill="#C7D46F"/>
<path d="M13.4861 12.3802C13.3308 12.3802 13.2048 12.5062 13.2048 12.6615V13.6694C13.3848 13.6941 13.5726 13.7173 13.7673 13.7388V12.6615C13.7673 12.5062 13.6414 12.3802 13.4861 12.3802Z" fill="#C7D46F"/>
<path d="M15.3492 12.6458C15.1939 12.6458 15.068 12.7717 15.068 12.927V13.8511C15.2518 13.863 15.4394 13.8736 15.6305 13.8827V12.927C15.6305 12.7717 15.5046 12.6458 15.3492 12.6458Z" fill="#C7D46F"/>
<path d="M17.4944 12.7473C17.3391 12.7473 17.2131 12.8732 17.2131 13.0286V13.9254C17.3078 13.926 17.4029 13.9264 17.4985 13.9264C17.5914 13.9264 17.6837 13.926 17.7756 13.9254V13.0286C17.7756 12.8732 17.6497 12.7473 17.4944 12.7473Z" fill="#C7D46F"/>
<path d="M19.6395 12.6458C19.4842 12.6458 19.3583 12.7717 19.3583 12.927V13.8831C19.5494 13.874 19.7369 13.8635 19.9208 13.8517V12.927C19.9208 12.7717 19.7948 12.6458 19.6395 12.6458Z" fill="#C7D46F"/>
<path d="M21.5026 12.3802C21.3472 12.3802 21.2213 12.5062 21.2213 12.6615V13.7397C21.416 13.7182 21.6038 13.6951 21.7838 13.6705V12.6615C21.7838 12.5062 21.6579 12.3802 21.5026 12.3802Z" fill="#C7D46F"/>
<path d="M22.9718 12.0099C22.8165 12.0099 22.6906 12.1358 22.6906 12.2911V13.5207C22.8954 13.4799 23.0835 13.4366 23.2531 13.3912V12.2911C23.2531 12.1358 23.1271 12.0099 22.9718 12.0099Z" fill="#C7D46F"/>
</g>
<defs>
<clipPath id="clip0_16830_6343">
<rect width="24" height="24" fill="white" transform="translate(0.75)"/>
</clipPath>
</defs>
</svg>

