<svg width="24" height="24" viewBox="0 0 24 24" fill="none" xmlns="http://www.w3.org/2000/svg">
<g clip-path="url(#clip0_16830_6307)">
<path d="M23.5636 11.1371H17.323C17.1227 11.1371 16.9494 10.9992 16.9029 10.8043C16.4651 8.96923 15.0146 7.52323 13.177 7.09193C12.9814 7.046 12.8427 6.87237 12.8427 6.67147V0.433166C12.8427 0.175542 13.0665 -0.0237702 13.3226 0.00332346C16.0486 0.292213 18.5745 1.4932 20.5405 3.45866C22.5009 5.41958 23.7011 7.93831 23.9934 10.6564C24.021 10.9128 23.8215 11.1371 23.5636 11.1371Z" fill="#BB73F1"/>
<path d="M12.8427 6.67161V5.38733C15.8471 5.75853 18.2299 8.13556 18.6104 11.1372H17.323C17.1228 11.1372 16.9494 10.9994 16.903 10.8045C16.4651 8.96942 15.0146 7.52342 13.177 7.09212C12.9814 7.04619 12.8427 6.87251 12.8427 6.67161Z" fill="#AC64E2"/>
<path d="M23.9976 13.2377C23.7572 15.5404 22.8659 17.7011 21.4131 19.5024C21.2512 19.7031 20.9517 19.7207 20.7694 19.5384L17.2756 16.0445L16.3562 15.1252C16.214 14.983 16.1899 14.7621 16.2956 14.5909C16.577 14.1353 16.7874 13.6314 16.9112 13.0946C16.9566 12.898 17.1305 12.7582 17.3323 12.7582H23.5678C23.8252 12.7581 24.0243 12.9816 23.9976 13.2377Z" fill="#D6E56E"/>
<path d="M18.6183 12.7582C18.4751 13.9875 17.9964 15.1141 17.2756 16.0446L16.3562 15.1253C16.214 14.983 16.1899 14.7621 16.2956 14.5909C16.577 14.1353 16.7874 13.6314 16.9112 13.0946C16.9566 12.8981 17.1305 12.7582 17.3323 12.7582H18.6183V12.7582Z" fill="#C3D15D"/>
<path d="M19.6252 20.6869C19.8073 20.869 19.79 21.1679 19.59 21.3299C17.4563 23.0588 14.8168 23.9991 12.0321 23.9991C8.8186 23.9991 5.797 22.7471 3.52422 20.475C1.26429 18.2151 0.0141787 15.2147 0.000116257 12.0216C-0.0139931 8.81484 1.25669 5.7263 3.52427 3.45877C5.48992 1.49312 8.0162 0.292135 10.7425 0.003432C10.9983 -0.0236148 11.2215 0.176213 11.2215 0.433416V6.67162C11.2215 6.8729 11.0822 7.04634 10.8863 7.09237C8.67544 7.61174 7.02456 9.5998 7.02456 11.9672C7.02456 14.7278 9.2708 16.9746 12.032 16.9746C13.0028 16.9746 13.9097 16.6966 14.6779 16.2165C14.8492 16.1094 15.0713 16.1331 15.2141 16.276L19.6252 20.6869Z" fill="#00AE4D"/>
<path d="M15.2143 16.2759L16.1355 17.1972C15.0043 18.0906 13.5746 18.6244 12.0206 18.6247C8.3401 18.6255 5.38477 15.6791 5.37502 11.9987C5.36593 8.59121 7.9223 5.77863 11.2216 5.38403V6.67155C11.2216 6.87283 11.0824 7.04626 10.8864 7.0923C8.67563 7.61167 7.02474 9.59973 7.02474 11.9671C7.02474 14.7277 9.27099 16.9745 12.0322 16.9745C13.003 16.9745 13.9099 16.6965 14.6781 16.2164C14.8494 16.1094 15.0714 16.1331 15.2143 16.2759Z" fill="#009D46"/>
</g>
<defs>
<clipPath id="clip0_16830_6307">
<rect width="24" height="24" fill="white"/>
</clipPath>
</defs>
</svg>

