<svg width="24" height="24" viewBox="0 0 24 24" fill="none" xmlns="http://www.w3.org/2000/svg">
<g clip-path="url(#clip0_8622_1205)">
<path d="M7.50146 0C3.35931 0 0.00146484 3.35784 0.00146484 7.5C0.00146484 11.6422 3.35931 15 7.50146 15C7.63417 15.0002 7.76153 14.9477 7.85546 14.854L14.8554 7.854C14.9492 7.76006 15.0017 7.6327 15.0015 7.5C14.9971 3.35967 11.6418 0.00440625 7.50146 0Z" fill="#00AE4D"/>
<path d="M15.5014 7C10.807 7 7.00146 10.8056 7.00146 15.5C7.00146 20.1944 10.807 24 15.5014 24C20.1959 24 24.0014 20.1944 24.0014 15.5C23.9959 10.8079 20.1936 7.00553 15.5014 7Z" fill="#AC64E2"/>
<path d="M7.50149 22C5.43594 21.8917 3.69037 20.4318 3.21847 18.418L4.27649 18.947C4.52361 19.0704 4.82404 18.9702 4.94751 18.723C5.07093 18.4759 4.97066 18.1754 4.72349 18.052L2.72347 17.052C2.70946 17.045 2.69347 17.046 2.67847 17.04C2.61472 17.0157 2.54666 17.0044 2.47846 17.007C2.46247 17.0061 2.44644 17.0061 2.43046 17.007C2.41485 17.0115 2.39952 17.0169 2.38447 17.023C2.25641 17.0531 2.14536 17.1325 2.07547 17.244C2.06746 17.257 2.05447 17.266 2.04749 17.28L1.04751 19.28C0.924037 19.527 1.02416 19.8273 1.27115 19.9508C1.27129 19.9509 1.27138 19.951 1.27152 19.951C1.34315 19.9856 1.42204 20.0024 1.50154 20C1.6911 20.0004 1.86458 19.8935 1.94952 19.724L2.33751 18.948C2.99924 21.2748 5.0841 22.9107 7.50149 23C7.77763 23 8.00151 22.7761 8.00151 22.5C8.00151 22.2238 7.77763 22 7.50149 22Z" fill="#0F0F0F"/>
<path d="M22.7255 4.051C22.4785 3.92753 22.1782 4.02766 22.0547 4.27464C22.0546 4.27478 22.0545 4.27487 22.0545 4.27502L21.6665 5.05103C21.0043 2.7243 18.919 1.08873 16.5015 1C16.2253 1 16.0015 1.22387 16.0015 1.50002C16.0015 1.77616 16.2253 2.00003 16.5015 2.00003C18.566 2.1085 20.3109 3.56734 20.7835 5.58002L19.7254 5.05103C19.4783 4.92761 19.1779 5.02787 19.0544 5.27505C18.931 5.52217 19.0313 5.82259 19.2784 5.94606L21.2785 6.94605C21.2854 6.94605 21.2925 6.94605 21.2995 6.94605C21.3621 6.97839 21.431 6.99681 21.5014 7.00005C21.5925 7.00089 21.682 6.97595 21.7594 6.92805L21.7684 6.92003C21.8345 6.8763 21.8891 6.81733 21.9274 6.74805C21.9334 6.73806 21.9445 6.73403 21.9494 6.72405L22.9494 4.72403C23.0738 4.47747 22.9747 4.17681 22.7282 4.05241C22.7273 4.05194 22.7264 4.05147 22.7255 4.051Z" fill="#0F0F0F"/>
<path d="M16.0015 15.035V12.035C17.1265 12.178 18.0015 12.792 18.0015 13.503C18.0015 13.7792 18.2254 14.003 18.5015 14.003C18.7777 14.003 19.0015 13.7792 19.0015 13.503C19.0015 12.223 17.7166 11.203 16.0015 11.038V10.5C16.0015 10.2239 15.7777 10 15.5015 10C15.2254 10 15.0015 10.2239 15.0015 10.5V11.035C13.2865 11.205 12.0015 12.22 12.0015 13.5C12.0015 14.78 13.2865 15.8 15.0015 15.965V18.965C13.8765 18.822 13.0015 18.208 13.0015 17.497C13.0015 17.2209 12.7776 16.997 12.5015 16.997C12.2253 16.997 12.0015 17.2209 12.0015 17.497C12.0015 18.7771 13.2864 19.7971 15.0015 19.9621V20.5C15.0015 20.7762 15.2253 21.0001 15.5015 21.0001C15.7776 21.0001 16.0015 20.7762 16.0015 20.5V19.965C17.7165 19.795 19.0015 18.78 19.0015 17.5C19.0015 16.22 17.7165 15.2 16.0015 15.035ZM13.0015 13.5C13.0015 12.789 13.8765 12.175 15.0015 12.032V14.969C13.8765 14.825 13.0015 14.211 13.0015 13.5ZM16.0015 18.968V16.032C17.1265 16.175 18.0015 16.789 18.0015 17.5C18.0015 18.211 17.1265 18.825 16.0015 18.968Z" fill="#FAFAFA"/>
<path d="M7.50148 12C5.53948 12 4.00146 10.9 4.00146 9.50002V5.50003C4.00146 4.10002 5.53948 3 7.50148 3C9.46348 3 11.0015 4.10002 11.0015 5.49998C11.0015 5.77612 10.7776 6 10.5015 6C10.2253 6 10.0015 5.77612 10.0015 5.49998C10.0015 4.68698 8.85645 3.99998 7.50148 3.99998C6.14651 3.99998 5.0015 4.68698 5.0015 5.49998V9.49997C5.0015 10.313 6.14651 11 7.50148 11C7.77762 11 8.0015 11.2238 8.0015 11.5C8.0015 11.7761 7.77762 12 7.50148 12Z" fill="#ECEFF1"/>
<path d="M8.50145 6.99998H3.50148C3.22534 6.99998 3.00146 6.77611 3.00146 6.49997C3.00146 6.22383 3.22534 6 3.50148 6H8.5015C8.77764 6 9.00151 6.22388 9.00151 6.50002C9.00151 6.77616 8.77759 6.99998 8.50145 6.99998Z" fill="#ECEFF1"/>
<path d="M8.50145 9.00003H3.50148C3.22534 9.00003 3.00146 8.77616 3.00146 8.50002C3.00146 8.22387 3.22534 8 3.50148 8H8.5015C8.77764 8 9.00151 8.22387 9.00151 8.50002C9.00147 8.77616 8.77759 9.00003 8.50145 9.00003Z" fill="#ECEFF1"/>
</g>
<defs>
<clipPath id="clip0_8622_1205">
<rect width="24" height="24" fill="white" transform="translate(0.00146484)"/>
</clipPath>
</defs>
</svg>

