<svg width="24" height="24" viewBox="0 0 24 24" fill="none" xmlns="http://www.w3.org/2000/svg">
<path fill-rule="evenodd" clip-rule="evenodd" d="M10.2226 17.9953C10.4049 17.3255 10.0046 16.6256 9.33475 16.4433L5.07615 15.2841C4.51084 15.2091 3.99756 15.346 3.54521 15.6928L1.86475 16.9796L3.07928 21.5114C3.92397 20.6977 4.67443 20.5355 5.49381 20.7235L7.93318 21.2827C8.48865 21.4102 9.01084 21.361 9.50443 21.076L15.6043 17.5542C16.1485 17.2402 16.3369 16.5375 16.0224 15.9933C15.7083 15.4491 15.0057 15.2606 14.4615 15.5752L10.2132 18.0277C10.2165 18.0169 10.2197 18.0061 10.2226 17.9953Z" fill="#FFD6BD"/>
<path fill-rule="evenodd" clip-rule="evenodd" d="M8.67101 18.8832C9.34179 19.066 10.0402 18.6662 10.2226 17.9954C10.2287 17.9733 10.2338 17.9518 10.2385 17.9298C9.93241 18.3099 9.41866 18.496 8.91991 18.3601L6.64507 17.7408C6.49366 17.6996 6.33663 17.7896 6.29538 17.941C6.25413 18.0919 6.3446 18.2499 6.49554 18.2907L8.67101 18.8832Z" fill="#F9C6AA"/>
<path fill-rule="evenodd" clip-rule="evenodd" d="M1.90646 16.2333L3.37553 21.7158C3.41115 21.8494 3.33146 21.9881 3.1974 22.0238L2.18396 22.2952C2.05037 22.3308 1.91162 22.2511 1.87553 22.117L0.406932 16.635C0.371307 16.5014 0.450994 16.3627 0.585057 16.3266L1.59849 16.0552C1.73209 16.0191 1.87084 16.0992 1.90646 16.2333Z" fill="#AC64E2"/>
<path fill-rule="evenodd" clip-rule="evenodd" d="M16.2128 5.53539C18.4117 9.30883 19.5109 11.1955 19.5109 11.1955C20.2028 9.87508 20.6406 8.8893 22.1884 8.62352C22.2976 5.7168 22.352 4.26367 22.352 4.26367C18.2593 5.11164 16.2128 5.53539 16.2128 5.53539Z" fill="#F9C6AA"/>
<path fill-rule="evenodd" clip-rule="evenodd" d="M19.6759 4.64394V12.1144C19.6759 12.5644 19.3089 12.9314 18.8589 12.9314H3.18385C2.73385 12.9314 2.36682 12.5644 2.36682 12.1144V4.64394C2.36682 4.19394 2.73385 3.8269 3.18385 3.8269H18.8593C19.3089 3.8269 19.6759 4.19394 19.6759 4.64394Z" fill="#00AE4D"/>
<path fill-rule="evenodd" clip-rule="evenodd" d="M4.75323 12.931H3.18385C2.73385 12.931 2.36682 12.5639 2.36682 12.1139V10.5446C3.68495 10.5446 4.75323 11.6133 4.75323 12.931Z" fill="#058E42"/>
<path fill-rule="evenodd" clip-rule="evenodd" d="M19.6758 10.5446V12.1139C19.6758 12.5639 19.3088 12.931 18.8588 12.931H17.2894C17.2894 11.6133 18.3577 10.5446 19.6758 10.5446Z" fill="#058E42"/>
<path fill-rule="evenodd" clip-rule="evenodd" d="M19.6758 4.64394V6.21331C18.3577 6.21331 17.2894 5.14503 17.2894 3.8269H18.8588C19.3088 3.8269 19.6758 4.19394 19.6758 4.64394Z" fill="#058E42"/>
<path fill-rule="evenodd" clip-rule="evenodd" d="M2.36682 6.21331V4.64394C2.36682 4.19394 2.73385 3.8269 3.18385 3.8269H4.75323C4.75323 5.14503 3.68495 6.21331 2.36682 6.21331Z" fill="#058E42"/>
<path d="M11.078 11.351C12.7172 11.3199 14.0209 9.96578 13.9897 8.32653C13.9586 6.68728 12.6044 5.38365 10.9652 5.4148C9.32594 5.44594 8.02232 6.80007 8.05346 8.43932C8.08461 10.0786 9.43873 11.3822 11.078 11.351Z" fill="#EFF4F7"/>
<path fill-rule="evenodd" clip-rule="evenodd" d="M19.6759 4.64394V6.96987C19.0112 7.05612 18.385 7.09831 17.725 6.908C17.0434 6.71112 16.4701 6.30331 15.9704 5.81534C15.3043 6.19409 14.635 6.56769 13.9731 6.95347C13.0009 7.51972 11.7423 7.18784 11.176 6.21565C10.7218 5.43612 10.8465 4.4705 11.4156 3.8269H18.8589C19.3089 3.8269 19.6759 4.19394 19.6759 4.64394Z" fill="#058E42"/>
<path fill-rule="evenodd" clip-rule="evenodd" d="M11.0213 5.41077C12.1979 5.41077 13.2146 6.09561 13.6951 7.08842C12.7731 7.45217 11.6898 7.09686 11.1765 6.21561C11.0288 5.96202 10.9421 5.68874 10.9126 5.41311C10.9482 5.4117 10.9848 5.41077 11.0213 5.41077Z" fill="#E9E8E6"/>
<path fill-rule="evenodd" clip-rule="evenodd" d="M22.6383 3.63701L22.6786 5.21389L19.6758 6.21326C18.4214 6.38295 17.4712 6.42139 16.11 4.87123C15.3905 5.28654 14.2397 5.93014 13.5956 6.3056C12.9802 6.6642 12.1828 6.4542 11.8242 5.83826C11.4661 5.22373 11.6766 4.42498 12.2916 4.06685C13.5942 3.30795 14.7764 2.58748 16.1062 1.87779C16.6219 1.60264 17.1825 1.67248 17.73 1.87639C19.3594 2.48248 19.9355 3.58357 22.6383 3.63701Z" fill="#FFD6BD"/>
<path fill-rule="evenodd" clip-rule="evenodd" d="M21.7561 2.90575V9.39606C21.7561 9.5606 21.8906 9.69513 22.0552 9.69513H23.3025C23.467 9.69513 23.6016 9.5606 23.6016 9.39606V2.90575C23.6016 2.74122 23.467 2.60669 23.3025 2.60669H22.0552C21.8906 2.60669 21.7561 2.74122 21.7561 2.90575Z" fill="#AC64E2"/>
<path fill-rule="evenodd" clip-rule="evenodd" d="M11.0748 10.0221C11.1113 10.0586 11.1479 10.0769 11.2027 10.0769C11.2575 10.0769 11.294 10.0586 11.3306 10.0221C11.4037 9.94902 11.4037 9.8394 11.3306 9.76632L10.545 8.98074H10.6546C10.8921 8.98074 11.1296 8.8894 11.294 8.7067C11.4296 8.58473 11.5148 8.42254 11.5498 8.24996H12.1162C12.2258 8.24996 12.2989 8.17689 12.2989 8.06727C12.2989 7.95765 12.2258 7.88458 12.1162 7.88458L11.5479 7.88458C11.5189 7.75413 11.4608 7.63234 11.3854 7.5192H12.1162C12.2258 7.5192 12.2989 7.44612 12.2989 7.3365C12.2989 7.22689 12.2258 7.15381 12.1162 7.15381H10.1065C9.99691 7.15381 9.92384 7.22689 9.92384 7.3365C9.92384 7.44612 9.99691 7.5192 10.1065 7.5192H10.6546C10.8008 7.5192 10.9469 7.574 11.0383 7.68362C11.1011 7.73602 11.146 7.80645 11.1728 7.88458H10.1065C9.99692 7.88458 9.92384 7.95765 9.92384 8.06727C9.92384 8.17689 9.99692 8.24996 10.1065 8.24996H11.1728C11.146 8.32809 11.1011 8.39853 11.0383 8.45093C10.9469 8.56055 10.8008 8.61536 10.6546 8.61536H10.1065C10.0335 8.61536 9.96037 8.65189 9.94211 8.72497C9.90557 8.79805 9.92384 8.87113 9.97864 8.92594L11.0748 10.0221Z" fill="#00AE4D"/>
</svg>

