<svg width="24" height="24" viewBox="0 0 24 24" fill="none" xmlns="http://www.w3.org/2000/svg">
<path d="M15.3516 9.84375L12.8417 19.7419H13.2344C13.4381 19.7419 13.6322 19.6627 13.7773 19.5197C14.6433 18.6667 17.7541 15.4863 19.429 12.2263L15.3516 9.84375Z" fill="#2FCF75"/>
<path d="M12 0C16.4498 0 20.1024 3.41278 20.4833 7.76367C20.505 8.01159 20.4785 8.26256 20.4785 8.51611C20.4785 9.01341 20.0762 9.53325 19.9336 10.0645H12V0Z" fill="#BB78EE"/>
<path d="M20.4833 7.76374C20.4688 8.39435 19.8682 8.90327 19.1291 8.90327C18.3808 8.90327 17.7801 8.38919 17.7801 7.7478L17.2754 11.5867C17.4234 12.0462 18.0553 12.3871 18.7033 12.3871C18.9705 12.3871 19.2177 12.3267 19.429 12.2263C20.0812 10.9573 20.5161 9.67638 20.5161 8.51618C20.5161 8.26277 20.505 8.01157 20.4833 7.76374Z" fill="#F7FFBC"/>
<path d="M12 11.2258H5.16795L4.57385 12.2279C6.24898 15.4871 9.35693 18.667 10.2227 19.5198C10.3677 19.6627 10.5619 19.7419 10.7655 19.7419H11.1583L12 11.2258Z" fill="#2FCF75"/>
<path d="M12.64 19.6785H11.36L10.844 22.7753L11.6076 22.9023L12 20.5474L12.3924 22.9023L13.156 22.7753L12.64 19.6785Z" fill="#AAAAAA"/>
<path d="M12 10.6875L12.3367 19.7419H12.8417C12.9805 19.7419 13.1129 19.6627 13.2118 19.5197C13.8242 18.635 16.0826 15.2459 17.1882 11.862L12 10.6875Z" fill="#13BB5D"/>
<path d="M17.6602 8.51953C17.5137 8.9948 17.2066 9.5333 17.1094 10.0645H12V0C15.0291 0 17.5164 3.40186 17.7828 7.74277C17.7985 7.99748 17.7422 8.25342 17.6602 8.51953Z" fill="#AC64E2"/>
<path d="M17.7872 7.85215C17.7831 7.8153 17.7829 7.78057 17.7829 7.74279C17.7829 8.38418 17.0006 8.90322 16.0461 8.90322C15.0918 8.90322 14.3116 8.38329 14.3116 7.74194H14.309C14.309 8.38333 14.033 10.0001 12.7578 10.0001L14.1255 11.3347H14.1387C14.1387 11.9159 14.9053 12.3871 15.7966 12.3871C16.3921 12.3871 16.9085 12.1751 17.1882 11.8621C17.5634 10.7135 17.8064 9.56547 17.8064 8.51618C17.8065 8.29244 17.7988 8.07147 17.7872 7.85215Z" fill="#E0EA9C"/>
<path d="M6.81128 11.8622C7.91692 15.246 10.1758 18.6351 10.7882 19.5198C10.8871 19.6627 11.0194 19.742 11.1583 19.742H11.6633L12 10.875L6.81128 11.8622Z" fill="#13BB5D"/>
<path d="M9.88904 11.582C10.3164 15.057 11.2636 18.6107 11.5154 19.5198C11.5549 19.6628 11.6079 19.742 11.6634 19.742H12.3367C12.3923 19.742 12.4452 19.6628 12.4847 19.5198C12.7363 18.6114 13.6823 15.0622 14.1101 11.5896L9.88904 11.582Z" fill="#00AE4D"/>
<path d="M12 0C7.55395 0 3.90361 3.40716 3.51764 7.75294C3.49533 8.00433 3.52345 8.25891 3.52345 8.51611C3.52345 9.01341 4.35736 9.53325 4.5 10.0645H12V0H12Z" fill="#BB78EE"/>
<path d="M6.27535 8.51611C6.27535 9.01341 6.69371 9.53325 6.79097 10.0645H12V0C8.96986 0 6.48188 3.40411 6.21685 7.74708C6.20138 8.00039 6.27535 8.25694 6.27535 8.51611Z" fill="#AA42F8"/>
<path d="M9.78517 8.51611C9.78517 9.01341 10.6369 9.53325 10.6758 10.0645H13.7578C13.7967 9.53325 14.0737 9.00441 14.168 8.51611C14.2149 8.27344 14.3194 7.99688 14.3131 7.74188C14.2065 3.40139 13.2115 0 12 0C10.7885 0 9.79356 3.40139 9.68692 7.74192C9.68064 7.99692 9.78517 8.25516 9.78517 8.51611Z" fill="#9C4DD8"/>
<path d="M12 8.90322C10.7248 8.90322 9.6869 8.38329 9.6869 7.74194C9.6869 8.38329 8.90826 9.17974 7.95389 9.17974C6.99951 9.17974 6.21693 8.38849 6.21693 7.74715C6.21693 8.38849 5.61923 8.90327 4.87097 8.90327C4.13179 8.90327 3.53212 8.38362 3.51764 7.75301C3.49593 8.00079 3.48389 8.26272 3.48389 8.51618C3.48389 9.67638 3.9217 10.959 4.57392 12.228C4.78518 12.3283 5.0295 12.3871 5.29668 12.3871C5.94468 12.3871 6.57665 12.0462 6.72464 11.5867C6.89775 12.0462 7.53886 11.961 8.29692 11.961C9.18815 11.961 9.81712 11.9159 9.81712 11.3347H9.82153H9.8235H9.86868C9.86868 11.916 10.8016 12.3872 12 12.3872V8.90322H12Z" fill="#E0EA9C"/>
<path d="M12.7742 23.6129H11.6129C11.3991 23.6129 11.2258 23.4396 11.2258 23.2258V22.8388C11.2258 22.625 11.3991 22.4517 11.6129 22.4517H12.7742C12.988 22.4517 13.1613 22.625 13.1613 22.8388V23.2258C13.1613 23.4396 12.988 23.6129 12.7742 23.6129Z" fill="#555555"/>
<path d="M12 23.2258C11.7862 23.2258 11.6129 23.0526 11.6129 22.8388V22.4517H11.2258C11.012 22.4517 10.8387 22.625 10.8387 22.8388V23.6129C10.8387 23.8267 11.012 24 11.2258 24H12.7742C12.988 24 13.1613 23.8267 13.1613 23.6129V23.2258H12Z" fill="#0F0F0F"/>
<path d="M12 10.3711L11.9999 9.83205C10.7247 9.83205 9.68684 8.38329 9.68684 7.74194C9.68684 8.38329 8.9082 8.90322 7.95383 8.90322C6.99945 8.90322 6.21772 8.38329 6.21772 7.74194C6.21772 7.77968 6.21687 7.81535 6.21275 7.85215C6.20122 8.07147 6.19348 8.29244 6.19348 8.51613C6.19348 9.56543 6.43648 10.7134 6.81176 11.8621C7.09137 12.1751 7.60779 12.3871 8.20334 12.3871C9.09458 12.3871 9.85906 11.9159 9.85906 11.3347H9.86858C9.86858 11.9159 10.8015 11.461 11.9999 11.461V10.3711H12Z" fill="#C6D464"/>
<path d="M14.3131 7.74194C14.3131 8.38329 13.2751 8.90322 11.9999 8.90322C10.7247 8.90322 9.68684 8.38329 9.68684 7.74194C9.68056 7.99713 9.67737 8.25499 9.67737 8.51618C9.67737 9.47772 9.75945 10.5222 9.88859 11.5741C10.1123 12.0398 10.9716 12.3871 12 12.3871C13.0283 12.3871 13.8876 12.0398 14.1113 11.5741C14.2405 10.5222 14.3225 9.47768 14.3225 8.51613C14.3225 8.25499 14.3194 7.99708 14.3131 7.74194Z" fill="#D6E56E"/>
</svg>

