<svg width="31" height="17" viewBox="0 0 31 17" fill="none" xmlns="http://www.w3.org/2000/svg">
<rect y="0.5" width="31" height="16" rx="4" fill="#35B350"/>
<path d="M10.5 6.83L9.68 7.31C9.62 7.16 9.53 7.02 9.38 6.89C9.17 6.72 8.95 6.65 8.66 6.65C8.04 6.65 7.72 7.02 7.72 7.45C7.72 7.65 7.79 8 8.44 8.26L9.11 8.53C10.34 9.03 10.68 9.73 10.68 10.49C10.68 11.76 9.78 12.63 8.53 12.63C7.76 12.63 7.3 12.34 6.96 11.96C6.6 11.56 6.44 11.12 6.4 10.66L7.41 10.44C7.41 10.77 7.53 11.08 7.69 11.29C7.88 11.53 8.16 11.69 8.56 11.69C9.18 11.69 9.66 11.24 9.66 10.57C9.66 9.89 9.14 9.61 8.7 9.43L8.06 9.16C7.51 8.93 6.7 8.47 6.7 7.47C6.7 6.57 7.4 5.71 8.65 5.71C9.37 5.71 9.78 5.98 9.99 6.16C10.17 6.32 10.36 6.55 10.5 6.83ZM12.5814 12.5H11.5414L12.9414 5.33L15.2614 10.51L17.6014 5.33L18.8614 12.5H17.8214L17.1414 8.48L15.2014 12.81L13.2814 8.47L12.5814 12.5ZM23.937 5.83V6.79H21.277V8.48H23.857V9.44H21.277V11.54H23.937V12.5H20.257V5.83H23.937Z" fill="white"/>
</svg>
