<svg width="20" height="20" viewBox="0 0 20 20" fill="none" xmlns="http://www.w3.org/2000/svg">
<circle cx="10.5" cy="10" r="6" fill="#AC64E2"/>
<path d="M8.22532 1.08221C7.97906 1.13093 7.74004 0.970692 7.69132 0.724432C7.6426 0.478165 7.80283 0.239147 8.04909 0.19043C8.68044 0.0655422 9.3328 0 10 0C10.6672 0 11.3196 0.0655422 11.9509 0.19043C12.1972 0.239147 12.3574 0.478165 12.3087 0.724432C12.26 0.970692 12.0209 1.13093 11.7747 1.08221C11.2011 0.968729 10.6077 0.90909 10 0.90909C9.39228 0.90909 8.79893 0.968729 8.22532 1.08221ZM18.1907 5.07413C17.9821 5.21377 17.6996 5.15794 17.5599 4.9494C16.8961 3.95782 16.0422 3.10392 15.0506 2.44007C14.8421 2.3004 14.7862 2.01788 14.9259 1.8093C15.0655 1.60078 15.3481 1.54493 15.5566 1.68457C16.6469 2.41449 17.5855 3.35311 18.3154 4.44336C18.4551 4.65193 18.3992 4.93445 18.1907 5.07413ZM2.44007 4.9494C2.3004 5.15794 2.01788 5.21377 1.8093 5.07413C1.60078 4.93445 1.54493 4.65193 1.68457 4.44336C2.41449 3.35311 3.35311 2.41449 4.44336 1.68457C4.65193 1.54493 4.93445 1.60078 5.07413 1.8093C5.21377 2.01788 5.15794 2.3004 4.9494 2.44007C3.95782 3.10392 3.10392 3.95782 2.44007 4.9494ZM20 10C20 10.6672 19.9345 11.3196 19.8096 11.9509C19.7609 12.1972 19.5218 12.3574 19.2756 12.3087C19.0293 12.26 18.8691 12.0209 18.9178 11.7747C19.0313 11.2011 19.0909 10.6077 19.0909 10C19.0909 9.39228 19.0313 8.79893 18.9178 8.22532C18.8691 7.97906 19.0293 7.74004 19.2756 7.69132C19.5218 7.6426 19.7609 7.80283 19.8096 8.04909C19.9345 8.68044 20 9.3328 20 10ZM0.90909 10C0.90909 10.6077 0.968729 11.2011 1.08221 11.7747C1.13093 12.0209 0.970692 12.26 0.724432 12.3087C0.478165 12.3574 0.239147 12.1972 0.19043 11.9509C0.0655422 11.3196 0 10.6672 0 10C0 9.3328 0.0655422 8.68044 0.19043 8.04909C0.239147 7.80283 0.478165 7.6426 0.724432 7.69132C0.970692 7.74004 1.13093 7.97906 1.08221 8.22532C0.968729 8.79893 0.90909 9.39228 0.90909 10ZM15.5566 18.3154C15.3481 18.4551 15.0655 18.3992 14.9259 18.1907C14.7862 17.9821 14.8421 17.6996 15.0506 17.5599C16.0422 16.8961 16.8961 16.0422 17.5599 15.0506C17.6996 14.8421 17.9821 14.7862 18.1907 14.9259C18.3992 15.0655 18.4551 15.3481 18.3154 15.5566C17.5855 16.6469 16.6469 17.5855 15.5566 18.3154ZM5.07413 18.1907C4.93445 18.3992 4.65193 18.4551 4.44336 18.3154C3.35311 17.5855 2.41449 16.6469 1.68457 15.5566C1.54493 15.3481 1.60078 15.0655 1.8093 14.9259C2.01788 14.7862 2.3004 14.8421 2.44007 15.0506C3.10392 16.0422 3.95782 16.8961 4.9494 17.5599C5.15794 17.6996 5.21377 17.9821 5.07413 18.1907ZM10 20C9.3328 20 8.68044 19.9345 8.04909 19.8096C7.80283 19.7609 7.6426 19.5218 7.69132 19.2756C7.74004 19.0293 7.97906 18.8691 8.22532 18.9178C8.79893 19.0313 9.39228 19.0909 10 19.0909C10.6077 19.0909 11.2011 19.0313 11.7747 18.9178C12.0209 18.8691 12.26 19.0293 12.3087 19.2756C12.3574 19.5218 12.1972 19.7609 11.9509 19.8096C11.3196 19.9345 10.6672 20 10 20Z" fill="#AC64E2"/>
</svg>
