<svg width="16" height="16" viewBox="0 0 16 16" fill="none" xmlns="http://www.w3.org/2000/svg">
<path d="M7.4668 5.3335V8.3335" stroke="#00C802" stroke-linecap="round" stroke-linejoin="round"/>
<path d="M10.0668 9.83356L7.4668 8.33356" stroke="#00C802" stroke-linecap="round" stroke-linejoin="round"/>
<path d="M4.4873 6.23145H1.9873V3.73145" stroke="#00C802" stroke-linecap="round" stroke-linejoin="round"/>
<path d="M4.11231 11.8875C4.88132 12.6571 5.86131 13.1814 6.92833 13.394C7.99535 13.6066 9.10145 13.4979 10.1067 13.0818C11.112 12.6656 11.9712 11.9607 12.5758 11.0561C13.1803 10.1515 13.503 9.08799 13.503 8C13.503 6.91201 13.1803 5.84847 12.5758 4.9439C11.9712 4.03933 11.112 3.33439 10.1067 2.91824C9.10145 2.50209 7.99535 2.39343 6.92833 2.60601C5.86131 2.81859 4.88132 3.34286 4.11231 4.1125L1.9873 6.23125" stroke="#00C802" stroke-linecap="round" stroke-linejoin="round"/>
</svg>
