<svg width="32" height="32" viewBox="0 0 32 32" fill="none" xmlns="http://www.w3.org/2000/svg">
<circle cx="10" cy="19" r="7" fill="#AC64E2" fill-opacity="0.2"/>
<path d="M27 29.75H11C10.2706 29.75 9.57116 29.4603 9.05544 28.9445C8.53971 28.4288 8.24998 27.7293 8.24998 27V26.55C6.54383 26.1547 5.02187 25.1932 3.93217 23.8221C2.84246 22.4511 2.24927 20.7514 2.24927 19C2.24927 17.2487 2.84246 15.5489 3.93217 14.1779C5.02187 12.8068 6.54383 11.8453 8.24998 11.45V5C8.24998 4.27066 8.53971 3.57119 9.05544 3.05546C9.57116 2.53974 10.2706 2.25 11 2.25H22.17C22.5324 2.24933 22.8914 2.32058 23.2261 2.45962C23.5609 2.59866 23.8647 2.80273 24.12 3.06L28.94 7.88C29.2033 8.14119 29.4109 8.45313 29.5501 8.79691C29.6894 9.1407 29.7574 9.50917 29.75 9.88V27C29.75 27.7293 29.4603 28.4288 28.9445 28.9445C28.4288 29.4603 27.7293 29.75 27 29.75ZM9.74998 26.75V27C9.74998 27.3315 9.88168 27.6495 10.1161 27.8839C10.3505 28.1183 10.6685 28.25 11 28.25H27C27.3315 28.25 27.6494 28.1183 27.8839 27.8839C28.1183 27.6495 28.25 27.3315 28.25 27V10.75H24C23.2706 10.75 22.5712 10.4603 22.0554 9.94455C21.5397 9.42882 21.25 8.72935 21.25 8V3.75H11C10.6685 3.75 10.3505 3.8817 10.1161 4.11612C9.88168 4.35054 9.74998 4.66848 9.74998 5V11.25H9.99998C12.0554 11.25 14.0267 12.0665 15.4801 13.5199C16.9335 14.9733 17.75 16.9446 17.75 19C17.75 21.0554 16.9335 23.0267 15.4801 24.4801C14.0267 25.9335 12.0554 26.75 9.99998 26.75H9.74998ZM9.99998 12.75C8.76385 12.75 7.55548 13.1166 6.52767 13.8033C5.49986 14.4901 4.69878 15.4662 4.22573 16.6082C3.75269 17.7503 3.62892 19.0069 3.87007 20.2193C4.11123 21.4317 4.70649 22.5453 5.58056 23.4194C6.45464 24.2935 7.56829 24.8888 8.78067 25.1299C9.99305 25.3711 11.2497 25.2473 12.3918 24.7743C13.5338 24.3012 14.5099 23.5001 15.1967 22.4723C15.8834 21.4445 16.25 20.2361 16.25 19C16.25 17.3424 15.5915 15.7527 14.4194 14.5806C13.2473 13.4085 11.6576 12.75 9.99998 12.75ZM22.75 3.89V8C22.75 8.33153 22.8817 8.64947 23.1161 8.88389C23.3505 9.11831 23.6685 9.25 24 9.25H28.11C28.0481 9.13648 27.9707 9.03214 27.88 8.94L23.06 4.12C22.9678 4.02929 22.8635 3.95188 22.75 3.89ZM25 22.75H20C19.8011 22.75 19.6103 22.671 19.4697 22.5303C19.329 22.3897 19.25 22.1989 19.25 22C19.25 21.8011 19.329 21.6103 19.4697 21.4697C19.6103 21.329 19.8011 21.25 20 21.25H25C25.1989 21.25 25.3897 21.329 25.5303 21.4697C25.671 21.6103 25.75 21.8011 25.75 22C25.75 22.1989 25.671 22.3897 25.5303 22.5303C25.3897 22.671 25.1989 22.75 25 22.75ZM8.49998 21.25C8.30704 21.2352 8.12755 21.1455 7.99998 21C7.87699 20.8625 7.809 20.6845 7.809 20.5C7.809 20.3155 7.87699 20.1375 7.99998 20L9.27998 18.72V16C9.27998 15.8011 9.359 15.6103 9.49965 15.4697C9.6403 15.329 9.83107 15.25 10.03 15.25C10.2289 15.25 10.4197 15.329 10.5603 15.4697C10.701 15.6103 10.78 15.8011 10.78 16V19C10.7798 19.1988 10.7007 19.3895 10.56 19.53L8.99998 21C8.87241 21.1455 8.69292 21.2352 8.49998 21.25ZM25 18.75H21C20.8011 18.75 20.6103 18.671 20.4697 18.5303C20.329 18.3897 20.25 18.1989 20.25 18C20.25 17.8011 20.329 17.6103 20.4697 17.4697C20.6103 17.329 20.8011 17.25 21 17.25H25C25.1989 17.25 25.3897 17.329 25.5303 17.4697C25.671 17.6103 25.75 17.8011 25.75 18C25.75 18.1989 25.671 18.3897 25.5303 18.5303C25.3897 18.671 25.1989 18.75 25 18.75ZM25 14.75H20C19.8011 14.75 19.6103 14.671 19.4697 14.5303C19.329 14.3897 19.25 14.1989 19.25 14C19.25 13.8011 19.329 13.6103 19.4697 13.4697C19.6103 13.329 19.8011 13.25 20 13.25H25C25.1989 13.25 25.3897 13.329 25.5303 13.4697C25.671 13.6103 25.75 13.8011 25.75 14C25.75 14.1989 25.671 14.3897 25.5303 14.5303C25.3897 14.671 25.1989 14.75 25 14.75ZM18 10.75H15C14.8011 10.75 14.6103 10.671 14.4697 10.5303C14.329 10.3897 14.25 10.1989 14.25 10C14.25 9.80109 14.329 9.61033 14.4697 9.46968C14.6103 9.32902 14.8011 9.25 15 9.25H18C18.1989 9.25 18.3897 9.32902 18.5303 9.46968C18.671 9.61033 18.75 9.80109 18.75 10C18.75 10.1989 18.671 10.3897 18.5303 10.5303C18.3897 10.671 18.1989 10.75 18 10.75Z" fill="#AC64E2"/>
<path d="M25 32C28.866 32 32 28.866 32 25C32 21.134 28.866 18 25 18C21.134 18 18 21.134 18 25C18 28.866 21.134 32 25 32Z" fill="#34B350"/>
<path d="M27 24L24.25 27L23 25.6364" stroke="white" stroke-width="1.5" stroke-linecap="round" stroke-linejoin="round"/>
</svg>
