<svg width="30" height="30" viewBox="0 0 30 30" fill="none" xmlns="http://www.w3.org/2000/svg">
<path fill-rule="evenodd" clip-rule="evenodd" d="M25 15C25 20.5228 20.5228 25 15 25C9.47715 25 5 20.5228 5 15C5 9.47715 9.47715 5 15 5C20.5228 5 25 9.47715 25 15ZM15 10.3999C15.3314 10.3999 15.6 10.6685 15.6 10.9999V14.3999H19C19.3314 14.3999 19.6 14.6685 19.6 14.9999C19.6 15.3313 19.3314 15.5999 19 15.5999H15.6V18.9999C15.6 19.3313 15.3314 19.5999 15 19.5999C14.6687 19.5999 14.4 19.3313 14.4 18.9999V15.5999H11C10.6687 15.5999 10.4 15.3313 10.4 14.9999C10.4 14.6685 10.6687 14.3999 11 14.3999H14.4V10.9999C14.4 10.6685 14.6687 10.3999 15 10.3999Z" fill="#00C802"/>
</svg>
